<svg width="45" height="45" viewBox="0 0 45 45" fill="none" xmlns="http://www.w3.org/2000/svg">
<g clip-path="url(#clip0)">
<path d="M42.6451 22.6709L41.5927 22.1549C41.6004 21.4116 41.5889 20.7363 41.5927 20.1006C41.5927 16.8298 40.7537 13.617 39.163 10.7759C39.5348 10.2398 39.5532 9.52444 39.1761 8.96019C37.7782 6.86821 36.0243 5.07498 33.963 3.63023C32.613 2.684 31.1511 1.9067 29.6178 1.31977C29.2778 1.1896 28.8967 1.35976 28.7665 1.69972C28.6363 2.03977 28.8065 2.42086 29.1465 2.55103C30.5788 3.09929 31.9448 3.82562 33.2063 4.70988C35.1333 6.06059 36.7731 7.7371 38.0799 9.69275C38.1624 9.81606 38.143 9.97849 38.0341 10.0789C37.9342 10.158 35.7328 12.229 35.5997 12.3096C35.5327 12.3431 35.4681 12.3423 35.43 12.3372C35.3763 12.3299 35.276 12.3013 35.2079 12.1918C34.3425 10.8008 33.2619 9.56575 31.9963 8.52082C29.3153 6.30738 25.9257 5.08834 22.4519 5.08834C18.7991 5.08834 15.2764 6.42094 12.5327 8.84074C11.4527 9.79312 10.5161 10.8923 9.74883 12.1075C9.68546 12.2077 9.58948 12.2324 9.5378 12.2382C9.48375 12.2443 9.37986 12.2411 9.29057 12.1517L7.00181 9.86282C6.89985 9.76078 6.88553 9.60003 6.96779 9.48041C7.93819 8.0702 9.0965 6.7972 10.4106 5.69672C13.7824 2.87332 18.0588 1.31836 22.452 1.31836C23.6603 1.31836 24.8694 1.43438 26.0459 1.66324C26.4031 1.73276 26.7492 1.49941 26.8188 1.14205C26.8883 0.784688 26.6549 0.438662 26.2976 0.369141C25.0385 0.124189 23.7446 0 22.452 0C17.7499 0 13.1729 1.6643 9.56417 4.68615C8.15871 5.86318 6.91972 7.22487 5.88173 8.73325C5.4842 9.31104 5.50881 10.0687 5.91724 10.6167C5.26263 11.7396 4.72192 12.9232 4.30831 14.1423C4.19133 14.487 4.37608 14.8613 4.72078 14.9783C4.79101 15.0021 4.86237 15.0134 4.9326 15.0134C5.20726 15.0134 5.46363 14.8403 5.5568 14.5659C5.90309 13.5452 6.34623 12.5515 6.87516 11.6007L8.28281 13.0084C7.16484 15.2457 6.57554 17.7365 6.57554 20.2488V33.9724L2.93537 32.1877C2.50655 31.9774 2.22943 31.533 2.22943 31.0555V24.9868C2.22943 24.5092 2.50655 24.0648 2.93537 23.8546C3.15791 23.7356 3.60694 23.5397 3.97855 23.3429C4.38021 23.1275 4.62973 22.7103 4.62973 22.2543V20.2567C4.62498 19.4084 4.68352 18.5523 4.80366 17.7122C4.85525 17.3517 4.60485 17.0178 4.2445 16.9663C3.88459 16.9146 3.55025 17.1651 3.49866 17.5255C3.36929 18.4297 3.30636 19.3511 3.31137 20.2604V22.2044C3.14649 22.2955 2.59875 22.543 2.33104 22.6827C1.4676 23.1175 0.911163 24.0188 0.911163 24.9868V31.0555C0.911163 32.0323 1.47797 32.9414 2.35503 33.3715L6.75202 35.5271C7.21415 36.9295 8.53585 37.945 10.0911 37.945C12.0295 37.945 13.6065 36.3681 13.6065 34.4297V22.5728C13.6065 20.6343 12.0295 19.0573 10.0911 19.0573C9.26332 19.0573 8.50201 19.3456 7.90066 19.8261C7.96289 17.6471 8.50482 15.4977 9.48138 13.558C9.54861 13.5588 9.6162 13.556 9.68414 13.5483C10.1724 13.4938 10.6023 13.2253 10.8637 12.8112C11.5639 11.7021 12.4189 10.6988 13.4048 9.82942C15.9076 7.62223 19.1206 6.40661 22.452 6.40661C25.6202 6.40661 28.7117 7.51843 31.157 9.53736C32.3124 10.4912 33.2987 11.6185 34.0886 12.8881C34.3467 13.3029 34.7712 13.5783 35.2533 13.6435C35.3261 13.6534 35.3987 13.6582 35.4711 13.6582C35.5029 13.6582 35.5344 13.6557 35.566 13.6538C36.5123 15.5678 37.0382 17.6836 37.0995 19.8261C36.4982 19.3455 35.7369 19.0572 34.909 19.0572C32.9706 19.0572 31.3936 20.6343 31.3936 22.5727V24.5496C31.3936 24.9137 31.6887 25.2088 32.0527 25.2088C32.4168 25.2088 32.7119 24.9137 32.7119 24.5496V22.5727C32.7119 21.3612 33.6975 20.3756 34.909 20.3756C36.1205 20.3756 37.1061 21.3612 37.1061 22.5727V34.4296C37.1061 35.641 36.1205 36.6266 34.909 36.6266C33.6975 36.6266 32.7119 35.641 32.7119 34.4296V27.8733C32.7119 27.5092 32.4168 27.2141 32.0527 27.2141C31.6887 27.2141 31.3936 27.5092 31.3936 27.8733V34.4296C31.3936 36.368 32.9706 37.9449 34.909 37.9449C35.7398 37.9449 36.5037 37.6546 37.1061 37.1709V38.7411C37.1061 39.2154 36.7202 39.6013 36.2459 39.6013H28.348C28.1426 38.9932 27.5679 38.5537 26.8915 38.5537H21.9071C21.059 38.5537 20.369 39.2437 20.369 40.0917V43.4619C20.369 44.31 21.059 45 21.9071 45H26.8915C27.5656 45 28.1385 44.5634 28.3457 43.9585H32.6254C32.9894 43.9585 33.2845 43.6634 33.2845 43.2993C33.2845 42.9353 32.9894 42.6401 32.6254 42.6401H28.4295V40.9198H36.2459C37.4471 40.9198 38.4245 39.9424 38.4245 38.7412V35.4406L40.1448 34.5972V40.4505C40.1448 41.6579 39.1626 42.6401 37.9552 42.6401H35.9137C35.5496 42.6401 35.2545 42.9353 35.2545 43.2993C35.2545 43.6634 35.5496 43.9585 35.9137 43.9585H37.9552C39.8895 43.9585 41.4632 42.3848 41.4632 40.4505V33.9508L42.6451 33.3715C43.5221 32.9414 44.0889 32.0324 44.0889 31.0555V24.9868C44.0889 24.01 43.5221 23.1009 42.6451 22.6709V22.6709ZM10.091 20.3758C11.3025 20.3758 12.2881 21.3614 12.2881 22.5729V34.4297C12.2881 35.6411 11.3025 36.6267 10.091 36.6267C8.8795 36.6267 7.8939 35.6411 7.8939 34.4297V22.5728C7.8939 21.3613 8.8795 20.3758 10.091 20.3758V20.3758ZM21.6873 43.4619V40.0919C21.6873 39.9708 21.7859 39.8722 21.907 39.8722H23.74V43.6816H21.907C21.7859 43.6816 21.6873 43.583 21.6873 43.4619V43.4619ZM27.1111 43.4619C27.1111 43.583 27.0125 43.6816 26.8914 43.6816H25.0584V39.8722H26.8914C27.0125 39.8722 27.1111 39.9708 27.1111 40.0919V43.4619ZM42.7706 31.0555C42.7706 31.5331 42.4934 31.9775 42.0646 32.1877L38.4245 33.9725C38.4245 32.2913 38.4245 21.6179 38.4245 20.2489C38.4245 17.7579 37.8446 15.2856 36.7445 13.0629L38.1846 11.734C39.5518 14.2966 40.2723 17.1673 40.2744 20.0883C40.2696 20.6357 40.2828 21.3698 40.2735 22.2546C40.2694 22.691 40.5196 23.097 40.9111 23.2891L42.0647 23.8547C42.4935 24.0649 42.7707 24.5093 42.7707 24.9869V31.0555H42.7706Z" fill="black"/>
<path d="M28.4283 20.3525C28.3808 19.782 28.0482 19.3199 27.581 19.1751C27.3608 19.1069 26.7906 19.0198 26.2502 19.6829C25.7477 20.2995 23.2228 24.8612 22.7217 25.7694C22.6091 25.9735 22.6127 26.2221 22.7312 26.4229C22.8498 26.6237 23.0657 26.747 23.2988 26.747H27.1051C27.1002 27.4464 27.0948 28.1212 27.0897 28.7201C27.0866 29.0842 27.3792 29.3818 27.7432 29.3849H27.749C28.1103 29.3849 28.4049 29.0936 28.408 28.7314C28.41 28.4973 28.4165 27.7298 28.4236 26.7469H28.9117C29.2758 26.7469 29.5709 26.4517 29.5709 26.0877C29.5709 25.7237 29.2758 25.4285 28.9117 25.4285H28.4324C28.4461 23.216 28.4551 20.675 28.4283 20.3525V20.3525ZM27.114 25.4286H24.4182C25.408 23.651 26.6468 21.467 27.1224 20.7316C27.1328 21.4551 27.1261 23.4125 27.114 25.4286V25.4286Z" fill="black"/>
<path d="M21.6574 28.7844C21.6528 28.4203 21.3575 28.1313 20.9899 28.1335C19.7892 28.1486 18.5023 28.157 17.6213 28.1532C18.1161 27.5025 18.9255 26.4226 20.1649 24.6516C20.7632 23.7635 21.2192 22.9242 21.2785 21.9873C21.2785 20.3628 19.9568 19.0411 18.3322 19.0411C16.9275 19.0411 15.7117 20.0403 15.4412 21.417C15.3711 21.7742 15.6038 22.1207 15.961 22.1909C16.3183 22.2609 16.6648 22.0283 16.7349 21.6711C16.8841 20.9111 17.556 20.3594 18.3322 20.3594C19.2169 20.3594 19.9391 21.069 19.9597 21.9488C19.9094 22.5429 19.5841 23.1484 19.0847 23.8955C17.6649 25.9242 16.8172 27.0343 16.3617 27.6306C15.8201 28.3397 15.6568 28.5537 15.7759 28.9413C15.8433 29.1606 16.0107 29.3293 16.235 29.404C16.6936 29.527 19.5213 29.4585 21.0064 29.4517C21.3705 29.4471 21.662 29.1484 21.6574 28.7844V28.7844Z" fill="black"/>
</g>
<defs>
<clipPath id="clip0">
<rect width="45" height="45" fill="white"/>
</clipPath>
</defs>
</svg>
