<svg width="45" height="45" viewBox="0 0 45 45" fill="none" xmlns="http://www.w3.org/2000/svg">
<g clip-path="url(#clip0)">
<path d="M22.4586 17.4475C19.4538 17.4475 17.0176 19.8837 17.0176 22.8885C17.0176 25.8936 19.4538 28.3295 22.4586 28.3295C25.4637 28.3295 27.8996 25.8936 27.8996 22.8885C27.8962 19.8852 25.4622 17.4509 22.4586 17.4475V17.4475ZM22.4586 26.7749C20.3123 26.7749 18.5722 25.0351 18.5722 22.8885C18.5722 20.7422 20.3123 19.0021 22.4586 19.0021C24.6052 19.0021 26.345 20.7422 26.345 22.8885C26.3427 25.034 24.6041 26.7726 22.4586 26.7749V26.7749Z" fill="black"/>
<path d="M6.13568 15.1156H7.69024V13.5611H5.3584C4.92915 13.5611 4.58112 13.9091 4.58112 14.3384V16.6702H6.13568V15.1156Z" fill="black"/>
<path d="M6.13568 29.1067H4.58112V31.4386C4.58112 31.8682 4.92915 32.2159 5.3584 32.2159H7.69024V30.6613H6.13568V29.1067Z" fill="black"/>
<path d="M1.47198 11.2292V34.5477C1.47198 34.9773 1.82002 35.325 2.24927 35.325H42.668C43.0976 35.325 43.4452 34.9773 43.4452 34.5477V11.2292C43.4452 10.8 43.0976 10.452 42.668 10.452H2.24927C1.82002 10.452 1.47198 10.8 1.47198 11.2292V11.2292ZM3.02655 12.0065H41.8907V33.7704H3.02655V12.0065Z" fill="black"/>
<path d="M39.5588 19.0021C36.9845 18.9998 34.8978 16.9131 34.8951 14.3384C34.8951 13.9091 34.5475 13.5611 34.1179 13.5611H10.7994C10.3701 13.5611 10.0221 13.9091 10.0221 14.3384C10.0198 16.9131 7.93315 18.9998 5.3584 19.0021C4.92915 19.0021 4.58112 19.3501 4.58112 19.7793V25.9976C4.58112 26.4272 4.92915 26.7749 5.3584 26.7749C7.93315 26.7775 10.0198 28.8642 10.0221 31.4386C10.0221 31.8682 10.3701 32.2159 10.7994 32.2159H34.1179C34.5475 32.2159 34.8951 31.8682 34.8951 31.4386C34.8978 28.8642 36.9845 26.7775 39.5588 26.7749C39.9885 26.7749 40.3361 26.4272 40.3361 25.9976V19.7793C40.3361 19.3501 39.9885 19.0021 39.5588 19.0021V19.0021ZM38.7816 25.2685C35.9658 25.6283 33.7486 27.8455 33.3888 30.6613H11.5285C11.1687 27.8455 8.95181 25.6283 6.13568 25.2685V20.5084C8.95181 20.1486 11.1687 17.9318 11.5285 15.1156H33.3888C33.7486 17.9318 35.9658 20.1486 38.7816 20.5084V25.2685Z" fill="black"/>
<path d="M39.5589 13.5611H37.2271V15.1156H38.7816V16.6702H40.3362V14.3384C40.3362 13.9091 39.9885 13.5611 39.5589 13.5611Z" fill="black"/>
<path d="M38.7816 30.6613H37.2271V32.2159H39.5589C39.9885 32.2159 40.3362 31.8682 40.3362 31.4386V29.1067H38.7816V30.6613Z" fill="black"/>
<path d="M11.9653 4.71038L12.7426 6.05506C18.0291 3.00666 24.4405 2.61877 30.0561 5.00717L26.775 6.64713L27.4699 8.0385L32.1336 5.70665C32.3188 5.61556 32.46 5.45388 32.526 5.25842C32.5921 5.06258 32.5777 4.84853 32.4858 4.6637L30.154 0L28.7626 0.694924L30.0838 3.33761C24.1494 1.02018 17.4833 1.52496 11.9653 4.71038V4.71038Z" fill="black"/>
<path d="M32.1747 40.2897L31.3974 38.945C26.1113 41.993 19.7002 42.3813 14.085 39.9929L17.3661 38.3525L16.6712 36.9612L12.0075 39.293C11.623 39.4851 11.467 39.9523 11.6594 40.3364L13.9913 45L15.3823 44.3051L14.0611 41.6624C19.9944 43.9783 26.6586 43.4736 32.1747 40.2897Z" fill="black"/>
</g>
<defs>
<clipPath id="clip0">
<rect width="45" height="45" fill="white"/>
</clipPath>
</defs>
</svg>
