<svg width="45" height="45" viewBox="0 0 45 45" fill="none" xmlns="http://www.w3.org/2000/svg">
<path d="M31.8101 34.1604C31.7594 33.4954 31.231 32.9669 30.5659 32.9161C29.822 32.9728 29.265 33.6217 29.3216 34.3655C29.3723 35.0305 29.9008 35.5589 30.5659 35.6097C31.3097 35.5531 31.8667 34.9041 31.8101 34.1604Z" fill="black"/>
<path d="M35.1047 33.0049C35.0541 32.3399 34.5256 31.8114 33.8605 31.7607C33.1167 31.8174 32.5597 32.4663 32.6163 33.21C32.667 33.875 33.1955 34.4035 33.8605 34.4542C34.6044 34.3976 35.1613 33.7486 35.1047 33.0049Z" fill="black"/>
<path d="M44.9939 12.4609V12.3984C44.9768 12.355 44.9559 12.3132 44.9314 12.2735L44.8845 12.211L44.7909 12.1095L44.7362 12.0627L44.6347 12.0158H44.5957L27.6381 5.08289C27.4503 5.00697 27.2403 5.00697 27.0525 5.08289L10.134 11.8987H10.0949L9.99343 11.9456L9.93878 11.9924L9.84509 12.0939L9.79824 12.1564C9.77375 12.1961 9.75286 12.2379 9.73579 12.2813V12.3437C9.72759 12.4085 9.72759 12.4741 9.73579 12.5389V18.7848H0.780737C0.349575 18.7848 0 19.1344 0 19.5656C0 19.9967 0.349575 20.3463 0.780737 20.3463V20.4478H9.6421V23.1179H6.60503C6.17387 23.1179 5.8243 23.4675 5.8243 23.8986C5.8243 24.3298 6.17387 24.6794 6.60503 24.6794H9.6421V27.3495H2.44371C2.01254 27.3495 1.66297 27.6991 1.66297 28.1302C1.66297 28.5614 2.01254 28.911 2.44371 28.911H9.6421V32.1744C9.64366 32.4897 9.83465 32.773 10.1262 32.8927L27.0525 39.9193C27.1371 39.9529 27.227 39.9714 27.318 39.974C27.4089 39.9714 27.4988 39.9529 27.5834 39.9193L44.5098 32.8927C44.8013 32.773 44.9923 32.4897 44.9939 32.1744V12.656C45.002 12.5912 45.002 12.5257 44.9939 12.4609ZM27.3414 6.66779L33.7591 9.23641L19.1593 15.412L12.484 12.6326L27.3414 6.66779ZM26.5372 38.0378L11.2036 31.6513V28.9032H14.4436C14.8748 28.9032 15.2244 28.5536 15.2244 28.1224C15.2244 27.6913 14.8748 27.3417 14.4436 27.3417H11.2036V24.6716H18.6206C19.0517 24.6716 19.4013 24.322 19.4013 23.8908C19.4013 23.4597 19.0517 23.1101 18.6206 23.1101H11.2036V20.4478H12.765C13.1962 20.4478 13.5458 20.0982 13.5458 19.667C13.5458 19.2359 13.1962 18.8863 12.765 18.8863H11.2036V13.7959L17.1684 16.263L26.5372 20.1667V38.0378ZM27.3492 18.8473L21.1814 16.263L35.7968 10.064L42.191 12.6404L32.8768 16.5441L27.3492 18.8473ZM28.1221 38.0378V20.1667L32.5177 18.3398L43.448 13.7803L43.487 31.6513L28.1221 38.0378Z" fill="black"/>
</svg>
