<svg width="45" height="45" viewBox="0 0 45 45" fill="none" xmlns="http://www.w3.org/2000/svg">
<path d="M35.7749 33.8572C35.376 33.5805 34.8284 33.68 34.552 34.0789C34.2841 34.4656 33.9805 34.8416 33.6492 35.1966C33.4273 35.4347 33.122 35.7217 32.7898 36.0044C32.4201 36.3191 32.3754 36.8737 32.69 37.2435C32.8638 37.4477 33.1111 37.5527 33.3598 37.5527C33.5612 37.5527 33.7636 37.4839 33.9291 37.3431C34.3167 37.0131 34.6646 36.6855 34.9348 36.3953C35.3235 35.9789 35.6808 35.5364 35.9969 35.0801C36.2733 34.6811 36.174 34.1336 35.7749 33.8572Z" fill="black"/>
<path d="M31.9459 37.798C31.7397 37.3585 31.2166 37.1694 30.7769 37.3755L30.7494 37.3879C30.3053 37.5838 30.1042 38.1027 30.3003 38.5468C30.4453 38.8755 30.7672 39.0711 31.1048 39.0711C31.2233 39.0711 31.3438 39.0469 31.4591 38.996C31.4806 38.9866 31.5018 38.9769 31.5232 38.967C31.9627 38.7608 32.1519 38.2376 31.9459 37.798Z" fill="black"/>
<path d="M42.3743 2.28523H2.62573C1.17782 2.28523 0 3.46323 0 4.91096V29.5424C0 30.9901 1.17782 32.168 2.62573 32.168H21.1342C21.9188 35.4876 23.6931 37.8387 25.2437 39.3449C27.5071 41.5438 30.1016 42.7148 31.1043 42.7148C32.107 42.7148 34.7015 41.5439 36.965 39.345C38.5156 37.8387 40.29 35.4876 41.0745 32.1681H42.3743C43.8221 32.1681 45 30.9902 45 29.5425V4.91096C45 3.46323 43.8221 2.28523 42.3743 2.28523ZM39.7265 28.5661C39.7266 33.1968 37.589 36.2685 35.7957 38.0299C33.6685 40.1194 31.4864 40.9321 31.1043 40.9568C30.7222 40.9321 28.5401 40.1194 26.4128 38.0299C24.6197 36.2685 22.4821 33.1968 22.4821 28.5661V24.2378C25.5082 23.3627 28.3397 22.165 31.1046 20.5911C33.8072 22.125 36.7656 23.376 39.7265 24.2373V28.5661ZM43.2422 29.5424C43.2422 30.0209 42.8528 30.4102 42.3743 30.4102H41.3801C41.4475 29.8212 41.4844 29.207 41.4844 28.5661V23.5714C41.4844 23.1747 41.2186 22.8273 40.8358 22.7233C37.6443 21.8566 34.4327 20.5061 31.5483 18.8178C31.2741 18.6573 30.9346 18.6575 30.6602 18.818C27.6941 20.5541 24.6562 21.8315 21.3729 22.7233C20.9901 22.8273 20.7243 23.1748 20.7243 23.5714V28.5661C20.7243 29.207 20.7611 29.8212 20.8285 30.4102H2.62573C2.14716 30.4102 1.75781 30.0208 1.75781 29.5424V14.5897H43.2422V29.5424ZM43.2422 12.832H1.75781V9.31656H43.2422V12.832ZM43.2422 7.55866H1.75781V4.91096C1.75781 4.4324 2.14716 4.04304 2.62573 4.04304H42.3743C42.8528 4.04304 43.2422 4.4324 43.2422 4.91096V7.55866Z" fill="black"/>
<path d="M10.5466 20.7424C10.0167 20.7424 9.49349 20.8496 9.00922 21.0538C8.5361 20.8533 8.01614 20.7424 7.47087 20.7424C5.29005 20.7424 3.51572 22.5166 3.51572 24.6973C3.51572 26.8781 5.28996 28.6524 7.47087 28.6524C8.01614 28.6524 8.5361 28.5415 9.00913 28.341C9.49349 28.5453 10.0167 28.6524 10.5466 28.6524C12.7275 28.6524 14.5018 26.8781 14.5018 24.6973C14.5018 22.5166 12.7275 20.7424 10.5466 20.7424ZM7.47087 26.8946C6.25922 26.8946 5.27352 25.909 5.27352 24.6973C5.27352 23.4858 6.25922 22.5002 7.47087 22.5002C8.68235 22.5002 9.66804 23.4858 9.66804 24.6973C9.66804 25.9089 8.68235 26.8946 7.47087 26.8946ZM10.7645 26.8839C11.182 26.2571 11.4259 25.5052 11.4259 24.6974C11.4259 23.8896 11.182 23.1379 10.7646 22.5111C11.8742 22.6208 12.7439 23.5595 12.7439 24.6974C12.7439 25.8353 11.8742 26.7741 10.7645 26.8839Z" fill="black"/>
<path d="M8.91523 16.7872H4.39441C3.90899 16.7872 3.5155 17.1807 3.5155 17.6661C3.5155 18.1514 3.90899 18.545 4.39441 18.545H8.91523C9.40065 18.545 9.79413 18.1513 9.79413 17.6661C9.79413 17.1807 9.40065 16.7872 8.91523 16.7872Z" fill="black"/>
<path d="M11.5133 16.7872H11.4717C10.9863 16.7872 10.5928 17.1807 10.5928 17.6661C10.5928 18.1514 10.9863 18.545 11.4717 18.545H11.5133C11.9987 18.545 12.3922 18.1513 12.3922 17.6661C12.3922 17.1807 11.9987 16.7872 11.5133 16.7872Z" fill="black"/>
<path d="M35.9287 26.5452C35.5857 26.2022 35.0292 26.202 34.6859 26.5451L29.9857 31.2449L27.5228 28.7818C27.1795 28.4388 26.623 28.4386 26.2798 28.7818C25.9365 29.1251 25.9365 29.6816 26.2798 30.0248L29.3643 33.1094C29.5359 33.281 29.7608 33.3669 29.9857 33.3669C30.2106 33.3669 30.4356 33.281 30.6071 33.1094L35.9286 27.7882C36.2719 27.4451 36.2719 26.8886 35.9287 26.5452Z" fill="black"/>
</svg>
