<svg display="none" xmlns="http://www.w3.org/2000/svg">
	<!-- иконка меню на кнопке каталог -->
	<symbol id="svg-menu" viewBox="0 0 19 20">
		<path  fill-rule="evenodd"
			d="M8.97 3.118C8.97 1.948 8.023 1 6.854 1H2.618C1.448 1 .5 1.948.5 3.118v4.235c0 1.17.948 2.118 2.118 2.118h4.235c1.17 0 2.118-.949 2.118-2.118V3.118zm-6.352-.53h4.235l.095.009a.53.53 0 01.434.52v4.236l-.008.095a.53.53 0 01-.521.434H2.618l-.096-.008a.53.53 0 01-.434-.521V3.118l.009-.096a.53.53 0 01.52-.434zM18.5 3.118C18.5 1.948 17.552 1 16.382 1h-4.235c-1.17 0-2.118.948-2.118 2.118v4.235c0 1.17.948 2.118 2.118 2.118h4.235c1.17 0 2.118-.949 2.118-2.118V3.118zm-6.353-.53h4.235l.095.009a.53.53 0 01.435.52v4.236l-.009.095a.53.53 0 01-.52.434h-4.236l-.095-.008a.53.53 0 01-.434-.521V3.118l.008-.096a.53.53 0 01.521-.434zM18.5 12.647c0-1.17-.948-2.118-2.118-2.118h-4.235c-1.17 0-2.118.948-2.118 2.118v4.235c0 1.17.948 2.118 2.118 2.118h4.235c1.17 0 2.118-.948 2.118-2.118v-4.235zm-6.353-.53h4.235l.095.01a.53.53 0 01.435.52v4.235l-.009.095a.53.53 0 01-.52.435h-4.236l-.095-.009a.53.53 0 01-.434-.52v-4.236l.008-.095a.53.53 0 01.521-.434zM8.97 12.647c0-1.17-.948-2.118-2.117-2.118H2.618c-1.17 0-2.118.948-2.118 2.118v4.235C.5 18.052 1.448 19 2.618 19h4.235c1.17 0 2.118-.948 2.118-2.118v-4.235zm-6.352-.53h4.235l.095.01a.53.53 0 01.434.52v4.235l-.008.095a.53.53 0 01-.521.435H2.618l-.096-.009a.53.53 0 01-.434-.52v-4.236l.009-.095a.53.53 0 01.52-.434z"
			clip-rule="evenodd"></path>
	</symbol>

	<symbol id="svg-down"  viewBox="0 0 9 4">
		<path  stroke-linecap="round" d="M8 .8L5.118 2.882a1 1 0 01-1.162.006L1 .8"></path>
	</symbol>
	
	<symbol id="svg-filter" viewBox="0 0 16 16">
		<path  fill-rule="evenodd"
			d="M15.75 2a.75.75 0 01-.75.75h-3.5a.75.75 0 110-1.5H15a.75.75 0 01.75.75zm0 6a.75.75 0 01-.75.75H8.5a.75.75 0 010-1.5H15a.75.75 0 01.75.75zm0 6a.75.75 0 01-.75.75h-.5a.75.75 0 110-1.5h.5a.75.75 0 01.75.75zm-7.5 0a.75.75 0 01-.75.75H1a.75.75 0 110-1.5h6.5a.75.75 0 01.75.75zm-3-12a.75.75 0 01-.75.75H1a.75.75 0 010-1.5h3.5a.75.75 0 01.75.75zm-3 6a.75.75 0 01-.75.75H1a.75.75 0 010-1.5h.5a.75.75 0 01.75.75zm5-6a.75.75 0 101.5 0 .75.75 0 00-1.5 0zM6 2a2 2 0 104 0 2 2 0 00-4 0zM4.25 8a.75.75 0 101.5 0 .75.75 0 00-1.5 0zM3 8a2 2 0 104 0 2 2 0 00-4 0zm7.25 6a.75.75 0 101.5 0 .75.75 0 00-1.5 0zM9 14a2 2 0 104 0 2 2 0 00-4 0z"
			clip-rule="evenodd"></path>
	</symbol>

	<symbol id="svg-search" viewBox="0 0 15 16">
		<path  fill-rule="evenodd"
			d="M14.177 7.176A6.588 6.588 0 101 7.176a6.588 6.588 0 0013.177 0zm-11.942 0a5.353 5.353 0 1110.706 0 5.353 5.353 0 01-10.706 0z"
			clip-rule="evenodd"></path>
		<path 
			d="M11.156 11.517a.618.618 0 01.805-.053l.069.06 2.587 2.631a.618.618 0 01-.812.927l-.07-.06-2.586-2.632a.618.618 0 01.007-.873z"></path>
	</symbol>

	<symbol id="svg-compare" viewBox="0 0 18 18">
		<path 
			d="M2.864 13.425c-.414 0-.75-.289-.75-.703 0-.38.282-.74.648-.79l.102-.007h13a.75.75 0 01.102 1.493l-.102.007h-13z"></path>
		<path 
			d="M3.857 15.525a.75.75 0 01-.975.083l-.085-.072-1.561-1.528a1.75 1.75 0 01-.23-2.224l.093-.127 1.363-1.685a.75.75 0 011.23.852l-.064.091L2.266 12.6a.25.25 0 00-.02.287l.04.05 1.56 1.527a.75.75 0 01.011 1.06zM15.055 3.44a.75.75 0 01.101 1.493l-.101.007h-13a.75.75 0 01-.102-1.493l.102-.007h13z"></path>
		<path 
			d="M14.062 1.363a.75.75 0 01.975-.083l.085.072 1.561 1.528a1.75 1.75 0 01.23 2.224l-.093.127-1.363 1.684a.75.75 0 01-1.23-.851l.064-.092 1.362-1.685a.25.25 0 00.02-.286l-.039-.05-1.561-1.527a.75.75 0 01-.011-1.06z"></path>
	</symbol>
	
	<symbol id="svg-cart" viewBox="0 0 21 19" >
		<path fill-rule="evenodd" clip-rule="evenodd"
			d="M0.0996094 1.0001C0.0996094 0.503041 0.502553 0.100098 0.999609 0.100098H2.3909C3.19834 0.100098 3.91761 0.610433 4.18428 1.3726M4.18428 1.3726L7.21456 10.0331C7.21456 10.0331 7.21455 10.0331 7.21456 10.0331C7.2286 10.0732 7.26646 10.1001 7.30896 10.1001H17.5827C17.6303 10.1001 17.6712 10.0667 17.6807 10.0201L18.8727 4.18431C18.8727 4.1843 18.8727 4.18432 18.8727 4.18431C18.8853 4.12232 18.838 4.06427 18.7747 4.06427H8.17454C7.67748 4.06427 7.27454 3.66132 7.27454 3.16427C7.27454 2.66721 7.67748 2.26427 8.17454 2.26427H18.7747C19.9768 2.26427 20.8768 3.36663 20.6363 4.54447L19.4443 10.3803C19.2636 11.2649 18.4855 11.9001 17.5827 11.9001H7.30896C6.50153 11.9001 5.78227 11.3898 5.51558 10.6277L2.48528 1.96707C2.47125 1.92697 2.43339 1.9001 2.3909 1.9001H0.999609C0.502553 1.9001 0.0996094 1.49715 0.0996094 1.0001"
			></path>
		<path
			d="M7 19C8.10457 19 9 18.1046 9 17C9 15.8954 8.10457 15 7 15C5.89543 15 5 15.8954 5 17C5 18.1046 5.89543 19 7 19Z"
			></path>
		<path
			d="M17 19C18.1046 19 19 18.1046 19 17C19 15.8954 18.1046 15 17 15C15.8954 15 15 15.8954 15 17C15 18.1046 15.8954 19 17 19Z"
			></path>
	</symbol>

	<symbol  id="svg-user" viewBox="0 0 16 18">
		<path  fill-rule="evenodd"
			d="M12 4.5a4 4 0 10-8 0 4 4 0 008 0zm-6.5 0a2.5 2.5 0 115 0 2.5 2.5 0 01-5 0zM15.5 13.498a3.218 3.218 0 00-3.87-3.15l-.312.064-.86.17-.51.096-.663.115-.377.06-.325.043-.273.03-.22.014h-.18l-.22-.014a7.43 7.43 0 01-.13-.013l-.299-.037-.35-.051-.404-.066-.964-.177-1.173-.235a3.218 3.218 0 00-3.87 3.15 4 4 0 004 4.001h7a4 4 0 004-4zm-3.566-1.682a1.718 1.718 0 012.03 1.334l.02.115c.01.077.016.155.016.233a2.5 2.5 0 01-2.5 2.5h-7l-.164-.005A2.5 2.5 0 012 13.498a1.718 1.718 0 012.066-1.682l.33.068.91.18.787.145.669.11.554.075.16.017.286.023.238.008.239-.008a6.09 6.09 0 00.136-.01l.309-.03.554-.075.433-.07.485-.084.827-.157.951-.192z"
			clip-rule="evenodd"></path>
	</symbol>

</svg>