<svg display="none" xmlns="http://www.w3.org/2000/svg">
	<symbol id="svg-reload" viewBox="0 0 24 24">
		<g>
			
				<path
					d="M22.846 10.6967C22.7717 10.2498 22.3334 9.94531 21.8672 10.0166C21.4011 10.0879 21.0835 10.5081 21.1579 10.955C21.1587 10.9599 21.1595 10.9647 21.1604 10.9696C22.0309 15.8821 18.5826 20.5409 13.4585 21.3754C8.33437 22.2099 3.47485 18.9041 2.60439 13.9916C1.73394 9.07907 5.18225 4.42023 10.3063 3.58572C13.4575 3.07254 16.665 4.12782 18.8235 6.38795L15.0369 7.59746C14.589 7.74035 14.3467 8.20428 14.4957 8.63372C14.4958 8.63382 14.4958 8.63397 14.4959 8.63406C14.6449 9.06351 15.1288 9.29576 15.5768 9.15292C15.5769 9.15287 15.577 9.15282 15.5771 9.15282L20.7057 7.51391C21.0549 7.40242 21.2904 7.08912 21.2904 6.73625V1.81948C21.2904 1.36689 20.9077 1 20.4356 1C19.9635 1 19.5808 1.36689 19.5808 1.81948V4.81295C15.1789 0.799056 8.21627 0.966294 4.02947 5.18646C-0.157325 9.40663 0.0170662 16.0817 4.41908 20.0956C8.82108 24.1096 15.7836 23.9423 19.9705 19.7221C22.3579 17.3156 23.4234 13.9714 22.846 10.6967Z"
					 stroke-width="0.5"></path>
			
		</g>
	</symbol>
	
	<!-- иконка меню на кнопке каталог -->
	<symbol id="svg-menu" viewBox="0 0 19 20">
		<path  fill-rule="evenodd"
			d="M8.97 3.118C8.97 1.948 8.023 1 6.854 1H2.618C1.448 1 .5 1.948.5 3.118v4.235c0 1.17.948 2.118 2.118 2.118h4.235c1.17 0 2.118-.949 2.118-2.118V3.118zm-6.352-.53h4.235l.095.009a.53.53 0 01.434.52v4.236l-.008.095a.53.53 0 01-.521.434H2.618l-.096-.008a.53.53 0 01-.434-.521V3.118l.009-.096a.53.53 0 01.52-.434zM18.5 3.118C18.5 1.948 17.552 1 16.382 1h-4.235c-1.17 0-2.118.948-2.118 2.118v4.235c0 1.17.948 2.118 2.118 2.118h4.235c1.17 0 2.118-.949 2.118-2.118V3.118zm-6.353-.53h4.235l.095.009a.53.53 0 01.435.52v4.236l-.009.095a.53.53 0 01-.52.434h-4.236l-.095-.008a.53.53 0 01-.434-.521V3.118l.008-.096a.53.53 0 01.521-.434zM18.5 12.647c0-1.17-.948-2.118-2.118-2.118h-4.235c-1.17 0-2.118.948-2.118 2.118v4.235c0 1.17.948 2.118 2.118 2.118h4.235c1.17 0 2.118-.948 2.118-2.118v-4.235zm-6.353-.53h4.235l.095.01a.53.53 0 01.435.52v4.235l-.009.095a.53.53 0 01-.52.435h-4.236l-.095-.009a.53.53 0 01-.434-.52v-4.236l.008-.095a.53.53 0 01.521-.434zM8.97 12.647c0-1.17-.948-2.118-2.117-2.118H2.618c-1.17 0-2.118.948-2.118 2.118v4.235C.5 18.052 1.448 19 2.618 19h4.235c1.17 0 2.118-.948 2.118-2.118v-4.235zm-6.352-.53h4.235l.095.01a.53.53 0 01.434.52v4.235l-.008.095a.53.53 0 01-.521.435H2.618l-.096-.009a.53.53 0 01-.434-.52v-4.236l.009-.095a.53.53 0 01.52-.434z"
			clip-rule="evenodd"></path>
	</symbol>

	<symbol id="svg-down"  viewBox="0 0 9 4">
		<path  stroke-linecap="round" d="M8 .8L5.118 2.882a1 1 0 01-1.162.006L1 .8"></path>
	</symbol>
	
	<symbol id="svg-filter" viewBox="0 0 16 16">
		<path  fill-rule="evenodd"
			d="M15.75 2a.75.75 0 01-.75.75h-3.5a.75.75 0 110-1.5H15a.75.75 0 01.75.75zm0 6a.75.75 0 01-.75.75H8.5a.75.75 0 010-1.5H15a.75.75 0 01.75.75zm0 6a.75.75 0 01-.75.75h-.5a.75.75 0 110-1.5h.5a.75.75 0 01.75.75zm-7.5 0a.75.75 0 01-.75.75H1a.75.75 0 110-1.5h6.5a.75.75 0 01.75.75zm-3-12a.75.75 0 01-.75.75H1a.75.75 0 010-1.5h3.5a.75.75 0 01.75.75zm-3 6a.75.75 0 01-.75.75H1a.75.75 0 010-1.5h.5a.75.75 0 01.75.75zm5-6a.75.75 0 101.5 0 .75.75 0 00-1.5 0zM6 2a2 2 0 104 0 2 2 0 00-4 0zM4.25 8a.75.75 0 101.5 0 .75.75 0 00-1.5 0zM3 8a2 2 0 104 0 2 2 0 00-4 0zm7.25 6a.75.75 0 101.5 0 .75.75 0 00-1.5 0zM9 14a2 2 0 104 0 2 2 0 00-4 0z"
			clip-rule="evenodd"></path>
	</symbol>

	<symbol id="svg-search" viewBox="0 0 15 16">
		<path  fill-rule="evenodd"
			d="M14.177 7.176A6.588 6.588 0 101 7.176a6.588 6.588 0 0013.177 0zm-11.942 0a5.353 5.353 0 1110.706 0 5.353 5.353 0 01-10.706 0z"
			clip-rule="evenodd"></path>
		<path 
			d="M11.156 11.517a.618.618 0 01.805-.053l.069.06 2.587 2.631a.618.618 0 01-.812.927l-.07-.06-2.586-2.632a.618.618 0 01.007-.873z"></path>
	</symbol>

	<symbol id="svg-compare" viewBox="0 0 18 18">
		<path 
			d="M2.864 13.425c-.414 0-.75-.289-.75-.703 0-.38.282-.74.648-.79l.102-.007h13a.75.75 0 01.102 1.493l-.102.007h-13z"></path>
		<path 
			d="M3.857 15.525a.75.75 0 01-.975.083l-.085-.072-1.561-1.528a1.75 1.75 0 01-.23-2.224l.093-.127 1.363-1.685a.75.75 0 011.23.852l-.064.091L2.266 12.6a.25.25 0 00-.02.287l.04.05 1.56 1.527a.75.75 0 01.011 1.06zM15.055 3.44a.75.75 0 01.101 1.493l-.101.007h-13a.75.75 0 01-.102-1.493l.102-.007h13z"></path>
		<path 
			d="M14.062 1.363a.75.75 0 01.975-.083l.085.072 1.561 1.528a1.75 1.75 0 01.23 2.224l-.093.127-1.363 1.684a.75.75 0 01-1.23-.851l.064-.092 1.362-1.685a.25.25 0 00.02-.286l-.039-.05-1.561-1.527a.75.75 0 01-.011-1.06z"></path>
	</symbol>
	
	<symbol id="svg-cart" viewBox="0 0 21 19" >
		<path fill-rule="evenodd" clip-rule="evenodd"
			d="M0.0996094 1.0001C0.0996094 0.503041 0.502553 0.100098 0.999609 0.100098H2.3909C3.19834 0.100098 3.91761 0.610433 4.18428 1.3726M4.18428 1.3726L7.21456 10.0331C7.21456 10.0331 7.21455 10.0331 7.21456 10.0331C7.2286 10.0732 7.26646 10.1001 7.30896 10.1001H17.5827C17.6303 10.1001 17.6712 10.0667 17.6807 10.0201L18.8727 4.18431C18.8727 4.1843 18.8727 4.18432 18.8727 4.18431C18.8853 4.12232 18.838 4.06427 18.7747 4.06427H8.17454C7.67748 4.06427 7.27454 3.66132 7.27454 3.16427C7.27454 2.66721 7.67748 2.26427 8.17454 2.26427H18.7747C19.9768 2.26427 20.8768 3.36663 20.6363 4.54447L19.4443 10.3803C19.2636 11.2649 18.4855 11.9001 17.5827 11.9001H7.30896C6.50153 11.9001 5.78227 11.3898 5.51558 10.6277L2.48528 1.96707C2.47125 1.92697 2.43339 1.9001 2.3909 1.9001H0.999609C0.502553 1.9001 0.0996094 1.49715 0.0996094 1.0001"
			></path>
		<path
			d="M7 19C8.10457 19 9 18.1046 9 17C9 15.8954 8.10457 15 7 15C5.89543 15 5 15.8954 5 17C5 18.1046 5.89543 19 7 19Z"
			></path>
		<path
			d="M17 19C18.1046 19 19 18.1046 19 17C19 15.8954 18.1046 15 17 15C15.8954 15 15 15.8954 15 17C15 18.1046 15.8954 19 17 19Z"
			></path>
	</symbol>

	<symbol  id="svg-user" viewBox="0 0 16 18">
		<path  fill-rule="evenodd"
			d="M12 4.5a4 4 0 10-8 0 4 4 0 008 0zm-6.5 0a2.5 2.5 0 115 0 2.5 2.5 0 01-5 0zM15.5 13.498a3.218 3.218 0 00-3.87-3.15l-.312.064-.86.17-.51.096-.663.115-.377.06-.325.043-.273.03-.22.014h-.18l-.22-.014a7.43 7.43 0 01-.13-.013l-.299-.037-.35-.051-.404-.066-.964-.177-1.173-.235a3.218 3.218 0 00-3.87 3.15 4 4 0 004 4.001h7a4 4 0 004-4zm-3.566-1.682a1.718 1.718 0 012.03 1.334l.02.115c.01.077.016.155.016.233a2.5 2.5 0 01-2.5 2.5h-7l-.164-.005A2.5 2.5 0 012 13.498a1.718 1.718 0 012.066-1.682l.33.068.91.18.787.145.669.11.554.075.16.017.286.023.238.008.239-.008a6.09 6.09 0 00.136-.01l.309-.03.554-.075.433-.07.485-.084.827-.157.951-.192z"
			clip-rule="evenodd"></path>
	</symbol>
	<symbol id="svg-minus" viewBox="0 0 18 2">
		<g>
			<path d="M1 1H17" stroke="currentColor" stroke-width="2" stroke-linecap="round" />
		</g>
	</symbol>
	<symbol id="svg-plus" viewBox="0 0 18 18">
		<g>

			<path d="M1 9H17" stroke="currentColor" stroke-width="2" stroke-linecap="round" />
			<path d="M9 17L9 1" stroke="currentColor" stroke-width="2" stroke-linecap="round" />

		</g>
	</symbol>
	<symbol id="svg-tg" viewBox="0 0 78 79">
		<g>
			<path
				d="M20.6718 16.8431L54.7147 5.49551C69.9919 0.403109 78.2921 8.74342 73.2398 24.0206L61.8922 58.0634C54.2737 80.9591 41.7632 80.9591 34.1447 58.0634L30.7764 47.9588L20.6718 44.5906C-2.22394 36.972 -2.22394 24.5018 20.6718 16.8431Z"
				stroke-width="6.01464" stroke-linecap="round"
				stroke-linejoin="round" />
			<path d="M31.5383 46.235L45.8933 31.8399" stroke-width="6.01464"
				stroke-linecap="round" stroke-linejoin="round" /></g>
	</symbol>

	<symbol id="svg-fb" viewBox="0 0 78 77">
		<g>
			<path
				d="M46.232 28.9953V39.3222H55.4906C56.2028 39.3222 56.5589 40.0344 56.5589 40.7466L55.1345 47.5125C55.1345 47.8686 54.4223 48.2247 54.0662 48.2247H46.232V74.22H35.549V48.5808H29.4953C28.7831 48.5808 28.427 48.2247 28.427 47.5125V40.7466C28.427 40.0344 28.7831 39.6783 29.4953 39.6783H35.549V27.927C35.549 21.8733 40.1783 17.244 46.232 17.244H55.8467C56.5589 17.244 56.915 17.6001 56.915 18.3123V26.8587C56.915 27.5709 56.5589 27.927 55.8467 27.927H47.3003C46.5881 27.927 46.232 28.2831 46.232 28.9953Z"
				stroke-width="5.3415" stroke-miterlimit="10" stroke-linecap="round" />
			<path
				d="M49.793 74.22H28.427C10.622 74.22 3.5 67.098 3.5 49.293V27.927C3.5 10.122 10.622 3 28.427 3H49.793C67.598 3 74.72 10.122 74.72 27.927V49.293C74.72 67.098 67.598 74.22 49.793 74.22Z"
				stroke-width="5.3415" stroke-linecap="round"
				stroke-linejoin="round" /></g>
	</symbol>

	<symbol id="svg-wa" viewBox="0 0 72 72">
		<g>
			<path
				d="M2.99625 71.2365C2.33389 71.2365 1.70455 70.9716 1.2409 70.5079C0.611663 69.8787 0.346885 68.9514 0.578711 68.0903L4.7516 52.4918C1.9697 47.3254 0.512409 41.4966 0.512409 35.6017C0.512409 15.9628 16.4752 0 36.114 0C55.753 0 71.7158 15.9628 71.7158 35.6017C71.7158 55.2406 55.753 71.2034 36.114 71.2034C30.1197 71.2034 24.2581 69.7131 19.0254 66.865L3.65864 71.1372C3.42682 71.2034 3.22808 71.2365 2.99625 71.2365ZM19.3565 61.7317C19.787 61.7317 20.2176 61.8645 20.615 62.0632C25.2846 64.812 30.6496 66.2688 36.114 66.2688C53.0042 66.2688 66.7481 52.5249 66.7481 35.6348C66.7481 18.7448 53.0042 5.00084 36.114 5.00084C19.224 5.00084 5.4801 18.7448 5.4801 35.6348C5.4801 41.033 6.90413 46.2987 9.58668 50.9352C9.91786 51.4983 10.0173 52.1937 9.85169 52.823L6.5399 65.2091L18.7273 61.831C18.926 61.7648 19.1578 61.7317 19.3565 61.7317Z"
			/>
			<path
				d="M45.1887 54.7094C43.1354 54.7094 41.0158 54.2457 38.7969 53.2853C36.7105 52.3911 34.6241 51.1989 32.6039 49.7086C30.6168 48.2514 28.6631 46.5955 26.8747 44.8071C25.0863 42.9856 23.4303 41.0648 21.9731 39.0777C20.4828 36.9913 19.2905 34.938 18.4295 32.9178C17.5022 30.732 17.0385 28.5793 17.0385 26.526C17.0385 25.0688 17.3034 23.6779 17.8002 22.3863C18.3301 21.0285 19.1912 19.8031 20.3172 18.7433C22.4367 16.6569 25.4837 15.8952 27.9013 17.0543C28.7293 17.4186 29.4247 18.0148 29.9548 18.8096L33.7961 24.2077C34.1935 24.7376 34.4919 25.3006 34.7237 25.8636C34.9887 26.526 35.1543 27.1884 35.1543 27.8177C35.1543 28.6787 34.9221 29.5398 34.4585 30.3015C34.1604 30.7982 33.7299 31.3944 33.1669 31.9574L32.7363 32.421C32.935 32.686 33.1669 33.0171 33.5312 33.4146C34.2266 34.2094 34.9884 35.0704 35.8163 35.8984C36.6442 36.6932 37.4722 37.4881 38.3001 38.1835C38.6976 38.5147 39.0291 38.7797 39.294 38.9452L39.7573 38.4816C40.3535 37.8855 40.9499 37.4218 41.546 37.1238C42.6389 36.4283 44.3276 36.2627 45.8179 36.8919C46.3478 37.0906 46.8777 37.3887 47.4407 37.7861L52.9717 41.694C53.7334 42.2239 54.3292 42.9525 54.7266 43.7805C55.0578 44.6084 55.1906 45.337 55.1906 46.0987C55.1906 47.0922 54.9584 48.0527 54.5279 48.98C54.0974 49.841 53.6006 50.6027 53.0045 51.2982C51.9447 52.4573 50.7197 53.3184 49.395 53.8814C48.0703 54.4444 46.6459 54.7094 45.1887 54.7094ZM25.4836 21.5252C25.2849 21.5252 24.6227 21.5252 23.7947 22.3531C23.1655 22.9493 22.7349 23.5786 22.4368 24.274C22.1387 24.9695 22.0062 25.7643 22.0062 26.5592C22.0062 27.9501 22.3374 29.4404 22.9997 31.0301C23.6952 32.686 24.722 34.4412 25.9804 36.1965C27.272 37.9517 28.7292 39.707 30.3522 41.3297C31.975 42.9194 33.6968 44.4097 35.4851 45.7344C37.2073 46.9929 38.9628 47.9864 40.7181 48.7481C43.235 49.841 45.553 50.106 47.4407 49.3112C48.103 49.0462 48.6992 48.5826 49.2953 47.9864C49.5933 47.6553 49.8255 47.3241 50.0242 46.8935C50.1236 46.6617 50.1895 46.3968 50.1895 46.1649C50.1895 46.0987 50.1895 45.9994 50.0901 45.8007L44.5594 41.959C44.3276 41.7934 44.0958 41.6609 43.8971 41.5947C43.7646 41.6609 43.5662 41.7603 43.2019 42.1246L41.9434 43.383C40.983 44.3435 39.4596 44.6084 38.2342 44.1779L37.6381 43.9129C36.8764 43.5155 36.015 42.9194 35.0546 42.0914C34.1273 41.2966 33.2334 40.4687 32.273 39.5414C31.3457 38.5809 30.5178 37.6868 29.7229 36.7595C28.8617 35.7328 28.2656 34.9049 27.8682 34.2094L27.5039 33.3483C27.4046 33.0171 27.3713 32.6528 27.3713 32.3217C27.3713 31.3944 27.7026 30.5664 28.3319 29.9041L29.5905 28.6125C29.9548 28.2482 30.0872 28.0495 30.1535 27.917C30.0541 27.6852 29.9216 27.4864 29.7561 27.2546L25.881 21.7902L25.4836 21.5252Z"
			/></g>
	</symbol>

	<symbol id="svg-location" viewBox="0 0 72 82">
		<g>
			<path
				d="M36.1028 49.0502C28.0162 49.0502 21.4103 42.4823 21.4103 34.3578C21.4103 26.2335 28.0162 19.7035 36.1028 19.7035C44.1894 19.7035 50.7952 26.2714 50.7952 34.3958C50.7952 42.5202 44.1894 49.0502 36.1028 49.0502ZM36.1028 25.3982C31.1674 25.3982 27.105 29.4225 27.105 34.3958C27.105 39.3691 31.1295 43.3934 36.1028 43.3934C41.0762 43.3934 45.1005 39.3691 45.1005 34.3958C45.1005 29.4225 41.0383 25.3982 36.1028 25.3982Z"
			/>
			<path
				d="M36.0983 81.6623C30.4795 81.6623 24.8227 79.5363 20.4188 75.3222C9.21916 64.5402 -3.15738 47.3421 1.5123 26.8791C5.72639 8.3143 21.9374 0 36.0983 0H36.1363C50.2971 0 66.5081 8.3143 70.7222 26.9171C75.3539 47.3801 62.9774 64.5402 51.7778 75.3222C47.3738 79.5363 41.7171 81.6623 36.0983 81.6623ZM36.0983 5.69472C25.0505 5.69472 10.8516 11.5793 7.09313 28.1319C2.99293 46.0134 14.2305 61.4271 24.4051 71.184C30.973 77.5242 41.2615 77.5242 47.8294 71.184C57.966 61.4271 69.2036 46.0134 65.1794 28.1319C61.3829 11.5793 47.1461 5.69472 36.0983 5.69472Z"
			/></g>
	</symbol>


	<symbol id="svg-favor" viewBox="0 0 77 70">
		<g>
			<path
				d="M40.7328 66.0671C39.5221 66.4944 37.5279 66.4944 36.3172 66.0671C25.9903 62.5417 2.91501 47.8348 2.91501 22.9077C2.91501 11.9042 11.7819 3.00171 22.7142 3.00171C29.1952 3.00171 34.9284 6.13539 38.525 10.9783C42.1216 6.13539 47.8904 3.00171 54.3359 3.00171C65.2681 3.00171 74.135 11.9042 74.135 22.9077C74.135 47.8348 51.0597 62.5417 40.7328 66.0671Z"
				stroke-width="5.3415" stroke-linecap="round"
				stroke-linejoin="round" />
		</g>
	</symbol>

	<symbol id="svg-mail" viewBox="0 0 78 67">
		<g>
			<path
				d="M56.915 63.537H21.305C10.622 63.537 3.5 58.1955 3.5 45.732V20.805C3.5 8.3415 10.622 3 21.305 3H56.915C67.598 3 74.72 8.3415 74.72 20.805V45.732C74.72 58.1955 67.598 63.537 56.915 63.537Z"
				stroke-width="5.3415" stroke-miterlimit="10" stroke-linecap="round"
				stroke-linejoin="round" />
			<path
				d="M56.915 22.5855L45.7691 31.488C42.1012 34.408 36.0832 34.408 32.4153 31.488L21.305 22.5855"
				stroke-width="5.3415" stroke-miterlimit="10" stroke-linecap="round"
				stroke-linejoin="round" /></g>
	</symbol>

	<symbol id="svg-call" viewBox="0 0 72 72">
		<g>
			<path
				d="M54.2635 71.8648C50.5133 71.8648 46.564 70.9688 42.482 69.243C38.4995 67.5505 34.4838 65.2274 30.5677 62.4064C26.6848 59.5523 22.9346 56.3663 19.3836 52.8817C15.8657 49.3306 12.6797 45.5805 9.85883 41.7307C7.00472 37.7483 4.71479 33.7658 3.08861 29.916C1.36287 25.8008 0.5 21.8183 0.5 18.0682C0.5 15.4796 0.964622 13.0237 1.86068 10.7338C2.78993 8.37747 4.28336 6.1871 6.30778 4.29543C8.86321 1.77319 11.7837 0.51207 14.9033 0.51207C16.1976 0.51207 17.5251 0.810756 18.6535 1.34175C19.9478 1.93912 21.043 2.83518 21.8395 4.02993L29.5389 14.8822C30.2358 15.8446 30.7668 16.7739 31.1319 17.7031C31.5633 18.6987 31.7957 19.6943 31.7957 20.6568C31.7957 21.9179 31.4306 23.1458 30.7337 24.3074C30.2358 25.2034 29.4725 26.1659 28.5101 27.1283L26.2534 29.4846C26.2866 29.5842 26.3197 29.6505 26.3529 29.7169C26.7512 30.4139 27.5477 31.6086 29.0743 33.4007C30.7005 35.2592 32.2271 36.9518 33.7537 38.5116C35.7118 40.4364 37.3379 41.963 38.8646 43.2242C40.7562 44.8172 41.9842 45.6136 42.7143 45.9787L42.6479 46.1446L45.0706 43.7552C46.0994 42.7263 47.095 41.963 48.0574 41.4652C49.8827 40.3369 52.2059 40.1377 54.529 41.1002C55.3918 41.4652 56.3211 41.963 57.3167 42.66L68.3349 50.4922C69.5628 51.3219 70.4589 52.3839 70.9899 53.645C71.4877 54.9061 71.72 56.0677 71.72 57.2292C71.72 58.8222 71.3549 60.4152 70.658 61.9086C69.9611 63.4021 69.0982 64.6964 68.003 65.8911C66.1113 67.9819 64.0537 69.4753 61.6642 70.4378C59.3743 71.367 56.8853 71.8648 54.2635 71.8648ZM14.9033 5.49017C13.078 5.49017 11.3854 6.28666 9.75926 7.87966C8.23265 9.30671 7.17065 10.8665 6.50691 12.5591C5.80997 14.2848 5.4781 16.1101 5.4781 18.0682C5.4781 21.1546 6.20822 24.5065 7.66846 27.958C9.16189 31.4758 11.2527 35.1265 13.9077 38.7771C16.5627 42.4277 19.5827 45.9787 22.9014 49.3306C26.2202 52.6162 29.8044 55.6694 33.4882 58.3576C37.0724 60.9794 40.7562 63.1034 44.4068 64.63C50.0819 67.0527 55.3918 67.6168 59.7726 65.7915C61.4651 65.0946 62.9585 64.0326 64.3192 62.506C65.0825 61.6763 65.6799 60.7803 66.1777 59.7183C66.576 58.8886 66.7751 58.0257 66.7751 57.1628C66.7751 56.6318 66.6755 56.1008 66.41 55.5035C66.3105 55.3043 66.1113 54.9393 65.4808 54.5079L54.4626 46.6756C53.7988 46.211 53.2015 45.8791 52.6373 45.6468C51.9072 45.3482 51.6085 45.0495 50.4801 45.7464C49.8164 46.0783 49.219 46.5761 48.5552 47.2398L46.033 49.7289C44.7387 50.99 42.7475 51.2887 41.2209 50.7245L40.3248 50.3262C38.9641 49.5961 37.3711 48.4678 35.6122 46.9743C34.0192 45.6136 32.2935 44.0207 30.2027 41.963C28.5765 40.3037 26.9503 38.5447 25.2577 36.5867C23.6979 34.7614 22.5696 33.2016 21.8726 31.9073L21.4744 30.9117C21.2753 30.1484 21.2089 29.7169 21.2089 29.2523C21.2089 28.0576 21.6403 26.9956 22.47 26.1659L24.9591 23.5773C25.6228 22.9135 26.1206 22.283 26.4525 21.7188C26.718 21.2873 26.8176 20.9223 26.8176 20.5904C26.8176 20.3249 26.718 19.9267 26.5521 19.5284C26.3197 18.9974 25.9547 18.4 25.4901 17.7695L17.7906 6.88404C17.4587 6.41941 17.0605 6.08754 16.5627 5.85523C16.0317 5.62292 15.4675 5.49017 14.9033 5.49017ZM42.6479 46.1778L42.1169 48.4346L43.013 46.1115C42.847 46.0783 42.7143 46.1115 42.6479 46.1778Z"
			/></g>
	</symbol>
	

	<symbol id="svg-cat1" viewBox="0 0 15 21">
		<g>
			<path fill-rule="evenodd" clip-rule="evenodd"
				d="M3.40801 11.976C3.48001 12.072 3.57601 12.12 3.67201 12.12C3.72001 12.12 3.79201 12.096 3.84001 12.072C3.92186 12.0311 3.97269 11.9514 3.9837 11.8638C4.24475 11.9428 4.53259 12 4.8 12C5.01599 12 5.20799 11.976 5.37599 11.856C6.02399 11.496 6.21599 10.992 5.92799 10.368C5.92119 10.3612 5.81309 10.1362 5.65639 9.81009C5.26299 8.99159 4.56362 7.53627 4.392 7.296C4.008 6.768 3.432 7.008 3.048 7.224C2.69491 7.43978 2.46607 7.78379 2.3189 8.11849C2.03271 7.26215 1.82401 6.3647 1.82401 5.568C1.82401 3.168 3.79201 0.576 7.03199 0.576C10.272 0.576 12.264 3.168 12.264 5.568C12.264 6.38046 12.0511 7.29329 11.7604 8.16029C11.6139 7.81619 11.3816 7.46122 11.016 7.24799C10.632 7.00799 10.08 6.76799 9.67199 7.31999C9.50039 7.56026 8.80109 9.01549 8.40769 9.83399C8.25099 10.1601 8.14289 10.3852 8.13599 10.392C7.84799 11.016 8.03999 11.52 8.68799 11.88C8.85599 11.976 9.04799 12 9.26399 12C9.53209 12 9.83109 11.938 10.1041 11.854C10.1144 11.9383 10.1655 12.017 10.248 12.072C10.392 12.168 10.56 12.12 10.656 11.976C10.6767 11.9449 10.7914 11.7551 10.9584 11.4495C10.9697 11.4328 10.9791 11.4153 10.9869 11.3972C11.6049 10.258 12.864 7.66739 12.864 5.592C12.864 2.904 10.632 0 7.03199 0C3.43201 0 1.20001 2.904 1.20001 5.592C1.20001 8.27999 3.31201 11.832 3.40801 11.976ZM10.4958 11.0524C10.7409 10.5917 11.0818 9.90789 11.399 9.13009C11.3871 9.00459 11.269 8.09099 10.704 7.75199C10.272 7.48799 10.2 7.58399 10.128 7.67999C9.99839 7.87439 9.13019 9.70149 8.78289 10.4325C8.74429 10.5137 8.71199 10.5816 8.68799 10.632C8.54399 10.92 8.56799 11.112 8.97599 11.352C9.28139 11.5164 10.2306 11.244 10.4958 11.0524ZM2.67031 9.06619C2.69929 8.84689 2.84134 8.01849 3.36 7.72799C3.816 7.488 3.888 7.584 3.936 7.65599C4.104 7.87199 5.15999 10.104 5.39999 10.632C5.54399 10.944 5.54399 11.136 5.11199 11.352C4.81233 11.5364 3.87057 11.2559 3.60522 11.0633C3.35449 10.5898 2.99833 9.87599 2.67031 9.06619Z"
				fill="black" />
			<path
				d="M12.096 20.6401C12 20.6401 11.904 20.5681 11.904 20.4481V14.9281C11.904 14.8321 11.976 14.7361 12.096 14.7361C12.216 14.7361 12.288 14.8081 12.288 14.9281V20.4481C12.288 20.5441 12.192 20.6401 12.096 20.6401Z"
				fill="black" />
			<path
				d="M1.96799 20.6401C1.87199 20.6401 1.776 20.5681 1.776 20.4481V14.9281C1.776 14.8321 1.84799 14.7361 1.96799 14.7361C2.08799 14.7361 2.15999 14.8081 2.15999 14.9281V20.4481C2.15999 20.5441 2.06399 20.6401 1.96799 20.6401Z"
				fill="black" />
			<path d="M9 18V17.5H7H5V18H7H9Z" fill="black" />
			<path
				d="M12.096 20.76H2.112C0.816 20.76 0 19.728 0 19.008V16.368C0 15.672 0.84 14.616 2.112 14.616H12.096C13.464 14.616 14.04 15.696 14.04 16.128V19.248C14.064 19.68 13.464 20.76 12.096 20.76ZM2.112 15.216C1.2 15.216 0.6 15.96 0.6 16.368V19.008C0.6 19.392 1.176 20.16 2.112 20.16H12.096C13.152 20.16 13.44 19.368 13.44 19.248V16.128C13.44 16.008 13.104 15.216 12.096 15.216H2.112Z"
				fill="black" /></g>
	</symbol>

	<symbol id="svg-cat2" viewBox="0 0 20 20">
		<g>
			<path fill-rule="evenodd" clip-rule="evenodd"
				d="M2.5 1.5625C2.5 0.699555 3.19956 0 4.0625 0H15.9375C16.8004 0 17.5 0.699555 17.5 1.5625V18.4375C17.5 19.3004 16.8004 20 15.9375 20H4.0625C3.19955 20 2.5 19.3004 2.5 18.4375V1.5625ZM4.0625 0.625C3.54473 0.625 3.125 1.04473 3.125 1.5625V4.0625H12.1875C12.3601 4.0625 12.5 4.20241 12.5 4.375C12.5 4.54759 12.3601 4.6875 12.1875 4.6875H3.125V18.4375C3.125 18.9553 3.54473 19.375 4.0625 19.375H15.9375C16.4553 19.375 16.875 18.9553 16.875 18.4375V4.6875H14.0625C13.8899 4.6875 13.75 4.54759 13.75 4.375C13.75 4.20241 13.8899 4.0625 14.0625 4.0625H16.875V1.5625C16.875 1.04473 16.4553 0.625 15.9375 0.625H15.625V1.25C15.625 2.11294 14.9254 2.8125 14.0625 2.8125H11.875C11.0121 2.8125 10.3125 2.11294 10.3125 1.25V0.625H4.0625ZM10.9375 0.625V1.25C10.9375 1.76777 11.3572 2.1875 11.875 2.1875H14.0625C14.5803 2.1875 15 1.76777 15 1.25V0.625H10.9375ZM4.6875 2.5C4.6875 2.32741 4.82741 2.1875 5 2.1875H8.125C8.29759 2.1875 8.4375 2.32741 8.4375 2.5C8.4375 2.67259 8.29759 2.8125 8.125 2.8125H5C4.82741 2.8125 4.6875 2.67259 4.6875 2.5ZM10 8.4375C7.75634 8.4375 5.9375 10.2563 5.9375 12.5C5.9375 14.7437 7.75634 16.5625 10 16.5625C12.2437 16.5625 14.0625 14.7437 14.0625 12.5C14.0625 10.2563 12.2437 8.4375 10 8.4375ZM5.3125 12.5C5.3125 9.91117 7.41117 7.8125 10 7.8125C12.5888 7.8125 14.6875 9.91117 14.6875 12.5C14.6875 15.0888 12.5888 17.1875 10 17.1875C7.41117 17.1875 5.3125 15.0888 5.3125 12.5Z"
				fill="black" /></g>
	</symbol>

	<symbol id="svg-cat3" viewBox="0 0 20 20">
		<g>
			<path fill-rule="evenodd" clip-rule="evenodd"
				d="M8.0472 0.625C7.89057 0.625 7.75814 0.740947 7.73744 0.896199L7.23193 4.6875H12.7681L12.2626 0.896199C12.2419 0.740947 12.1094 0.625 11.9528 0.625H8.0472ZM13.3986 4.6875L12.8821 0.813597C12.82 0.347841 12.4227 0 11.9528 0H8.0472C7.57732 0 7.18002 0.34784 7.11792 0.813596L6.6014 4.6875H6.25C5.38706 4.6875 4.6875 5.38706 4.6875 6.25V13.75C4.6875 14.6129 5.38706 15.3125 6.25 15.3125H6.6014L7.11792 19.1864C7.18002 19.6522 7.57732 20 8.0472 20H11.9528C12.4227 20 12.82 19.6522 12.8821 19.1864L13.3986 15.3125H13.75C14.6129 15.3125 15.3125 14.6129 15.3125 13.75V13.4375C15.8303 13.4375 16.25 13.0178 16.25 12.5V10.625C16.25 10.1072 15.8303 9.6875 15.3125 9.6875V8.39812C15.8516 8.25936 16.25 7.76995 16.25 7.1875C16.25 6.59612 15.8393 6.10067 15.2876 5.97075C15.156 5.24105 14.5176 4.6875 13.75 4.6875H13.3986ZM15.3125 6.64611V7.72889C15.4993 7.62082 15.625 7.41884 15.625 7.1875C15.625 6.95616 15.4993 6.75418 15.3125 6.64611ZM15.3125 10.3125V12.8125C15.4851 12.8125 15.625 12.6726 15.625 12.5V10.625C15.625 10.4524 15.4851 10.3125 15.3125 10.3125ZM12.7681 15.3125H7.23193L7.73744 19.1038C7.75814 19.2591 7.89057 19.375 8.0472 19.375H11.9528C12.1094 19.375 12.2419 19.2591 12.2626 19.1038L12.7681 15.3125ZM6.25 5.3125C5.73223 5.3125 5.3125 5.73223 5.3125 6.25V13.75C5.3125 14.2678 5.73223 14.6875 6.25 14.6875H13.75C14.2678 14.6875 14.6875 14.2678 14.6875 13.75V6.25C14.6875 5.73223 14.2678 5.3125 13.75 5.3125H6.25Z"
				fill="black" /></g>
	</symbol>

	<symbol id="svg-cat4" viewBox="0 0 19 20">
		<g>
			<path
				d="M18.9694 11.9943C18.9694 10.6012 17.854 9.46619 16.4701 9.42992C15.4546 6.85441 12.9592 5.01989 10.0364 4.98082C10.2721 4.68905 10.5003 4.31956 10.5097 3.97039C10.5286 3.22044 10.0589 2.9466 9.71589 2.74671C9.40479 2.56535 9.25532 2.4649 9.25472 2.16576C9.25353 1.57564 9.81893 1.52104 9.93054 1.51625C10.0956 1.51127 10.2253 1.37336 10.2203 1.20834C10.2151 1.04332 10.0786 0.915773 9.9124 0.918563C9.47734 0.931916 8.65484 1.20993 8.65703 2.16735C8.65883 2.82244 9.09588 3.07714 9.41496 3.26329C9.75755 3.46298 9.92157 3.57578 9.9122 3.95524C9.90463 4.24024 9.49029 4.73629 9.17859 5.02088C6.54648 5.30687 4.34824 7.0545 3.41155 9.43291C2.04996 9.49529 0.960602 10.6187 0.960602 11.9947C0.960602 13.372 2.05016 14.4962 3.41175 14.5586C4.43773 17.163 6.97676 19.0117 9.9413 19.0117C12.9048 19.0117 15.4431 17.164 16.4699 14.561C17.8538 14.5245 18.9694 13.3885 18.9694 11.9943ZM1.55829 11.9943C1.55829 11.0205 2.26958 10.2118 3.1997 10.0543C3.02193 10.6711 2.92467 11.3216 2.92467 11.9949C2.92467 12.6685 3.02212 13.3194 3.2001 13.9364C2.26978 13.7788 1.55829 12.969 1.55829 11.9943ZM9.9411 18.4134C6.40199 18.4134 3.52256 15.5342 3.52256 11.9949C3.52256 8.45556 6.40199 5.57612 9.9411 5.57612C13.4804 5.57612 16.3596 8.45556 16.3596 11.9949C16.3596 15.5342 13.4804 18.4134 9.9411 18.4134ZM16.6799 13.9442C16.8595 13.3248 16.9575 12.6713 16.9575 11.9949C16.9575 11.3186 16.8595 10.6654 16.6801 10.0463C17.6345 10.1821 18.3713 11.0028 18.3713 11.9943C18.3715 12.987 17.6343 13.8085 16.6799 13.9442Z"
				fill="black" />
			<path
				d="M8.10238 11.2359C8.10238 11.401 8.23611 11.5349 8.40133 11.5349C8.56654 11.5349 8.70027 11.401 8.70027 11.2359C8.70027 10.47 8.07707 9.84685 7.31078 9.84685C6.54448 9.84685 5.92108 10.47 5.92108 11.2359C5.92108 11.401 6.05481 11.5349 6.22003 11.5349C6.38524 11.5349 6.51897 11.401 6.51897 11.2359C6.51897 10.7999 6.87412 10.4447 7.31078 10.4447C7.74724 10.4447 8.10238 10.7999 8.10238 11.2359Z"
				fill="black" />
			<path
				d="M12.4981 9.84685C11.7318 9.84685 11.1084 10.47 11.1084 11.2359C11.1084 11.401 11.2423 11.5349 11.4073 11.5349C11.5723 11.5349 11.7063 11.401 11.7063 11.2359C11.7063 10.7999 12.0614 10.4447 12.4981 10.4447C12.9347 10.4447 13.2897 10.7997 13.2897 11.2359C13.2897 11.401 13.4236 11.5349 13.5886 11.5349C13.7536 11.5349 13.8876 11.401 13.8876 11.2359C13.8876 10.47 13.2642 9.84685 12.4981 9.84685Z"
				fill="black" />
			<path
				d="M12.7348 13.2052C12.5698 13.2052 12.4359 13.3391 12.4359 13.5041C12.4359 14.8799 11.3168 15.9993 9.94109 15.9993C8.56554 15.9993 7.44649 14.8801 7.44649 13.5041C7.44649 13.3391 7.31276 13.2052 7.14755 13.2052C6.98233 13.2052 6.8486 13.3391 6.8486 13.5041C6.8486 15.2097 8.23591 16.5972 9.94109 16.5972C11.6465 16.5972 13.0338 15.2097 13.0338 13.5041C13.0338 13.3391 12.9 13.2052 12.7348 13.2052Z"
				fill="black" /></g>
	</symbol>

	<symbol id="svg-cat5" viewBox="0 0 20 20">
		<g>
			<path fill-rule="evenodd" clip-rule="evenodd"
				d="M0 3.125C0 2.26205 0.699555 1.5625 1.5625 1.5625H18.4375C19.3004 1.5625 20 2.26206 20 3.125V14.375C20 15.2379 19.3004 15.9375 18.4375 15.9375H11.4062V16.9267L16.3059 17.8175C16.4757 17.8484 16.5883 18.0111 16.5575 18.1809C16.5266 18.3507 16.3639 18.4633 16.1941 18.4325L11.0656 17.5H8.93443L3.8059 18.4325C3.6361 18.4633 3.47341 18.3507 3.44254 18.1809C3.41167 18.0111 3.52429 17.8484 3.6941 17.8175L8.59375 16.9267V15.9375H1.5625C0.699555 15.9375 0 15.2379 0 14.375V3.125ZM9.21875 15.9375V16.875H10.7812V15.9375H9.21875ZM1.5625 2.1875C1.04473 2.1875 0.625 2.60723 0.625 3.125V14.375C0.625 14.8928 1.04473 15.3125 1.5625 15.3125H18.4375C18.9553 15.3125 19.375 14.8928 19.375 14.375V3.125C19.375 2.60723 18.9553 2.1875 18.4375 2.1875H1.5625Z"
				fill="black" /></g>
	</symbol>

	<symbol id="svg-cat6" viewBox="0 0 16 20">
		<g>
			<path
				d="M12.0934 0.404013L12.0723 0L11.6702 0.0432735C11.6308 0.0474859 7.74419 0.515835 7.47766 4.86118L7.45085 5.29621L7.88588 5.26673C7.93031 5.26366 12.3323 4.9125 12.0934 0.404013ZM11.3347 0.889212C11.2616 3.50783 9.2243 4.2362 8.28913 4.43266C8.64528 1.88795 10.4907 1.11247 11.3347 0.889212Z"
				fill="black" />
			<path
				d="M15.8394 14.3672L15.5947 14.2879C14.1138 13.8092 13.1193 12.4528 13.1193 10.9126C13.1193 9.54236 13.894 8.31692 15.1417 7.71416L15.5139 7.53455L15.3063 7.17726C15.2175 7.02408 14.3869 5.66728 12.6322 5.21808C11.2405 4.86194 9.6758 5.17711 7.97971 6.15516C7.26168 5.71936 4.87666 4.46328 2.97914 5.72243C2.60767 5.92769 -1.32945 8.28628 0.719725 14.6502C0.779848 14.7926 2.20864 18.14 3.89937 19.3938C4.35546 19.8296 5.52193 20.3741 6.85498 19.4654C7.0859 19.37 8.63111 18.7753 9.61146 19.4719C9.97335 19.7197 10.6052 20.0004 11.2727 20.0004C11.779 20.0004 12.3055 19.8392 12.7505 19.3796C12.9581 19.2 14.8541 17.5077 15.8394 14.8271L15.8681 14.749L15.8394 14.3672ZM12.2389 18.8086L12.2094 18.8366C11.3696 19.7185 10.0963 18.8749 10.0492 18.8435C9.54828 18.4873 8.96811 18.3713 8.42393 18.3713C7.4363 18.3713 6.56777 18.7539 6.51224 18.7788L6.44982 18.814C5.29369 19.6209 4.50213 18.9109 4.41827 18.8301L4.37308 18.7914C2.84395 17.6762 1.43852 14.3848 1.43661 14.3836C-0.48121 8.42185 3.19282 6.47186 3.34907 6.39259L3.39119 6.3677C5.17076 5.17289 7.72888 6.9023 7.75415 6.91953L7.95826 7.05969L8.16965 6.93217C9.76273 5.96905 11.2003 5.64162 12.4422 5.95986C13.454 6.21873 14.0989 6.85098 14.4144 7.23968C13.1327 8.02511 12.3538 9.39569 12.3538 10.9126C12.3538 12.6573 13.4011 14.2075 14.9969 14.8818C14.0146 17.2795 12.2577 18.7929 12.2389 18.8086Z"
				fill="black" /></g>
	</symbol>

	<symbol id="svg-cat7" viewBox="0 0 20 20">
		<g>
			<path fill-rule="evenodd" clip-rule="evenodd"
				d="M8.10755 2.8125C7.85375 2.8125 7.6108 2.9154 7.4342 3.09769L5.74907 4.83718C5.45475 5.141 5.04982 5.3125 4.62682 5.3125H2.1875C1.32455 5.3125 0.625 6.01205 0.625 6.875V15.625C0.625 16.4879 1.32456 17.1875 2.1875 17.1875H17.8125C18.6754 17.1875 19.375 16.4879 19.375 15.625V6.875C19.375 6.01206 18.6754 5.3125 17.8125 5.3125H15.3732C14.9502 5.3125 14.5452 5.141 14.2509 4.83718L12.5658 3.09769C12.3892 2.9154 12.1462 2.8125 11.8924 2.8125H8.10755ZM6.9853 2.66282C7.27962 2.359 7.68455 2.1875 8.10755 2.1875H11.8924C12.3154 2.1875 12.7204 2.359 13.0147 2.66282L14.6998 4.40231C14.8764 4.5846 15.1194 4.6875 15.3732 4.6875H17.8125C19.0206 4.6875 20 5.66688 20 6.875V15.625C20 16.8331 19.0206 17.8125 17.8125 17.8125H2.1875C0.979378 17.8125 0 16.8331 0 15.625V6.875C0 5.66688 0.979377 4.6875 2.1875 4.6875H4.62682C4.88062 4.6875 5.12358 4.5846 5.30017 4.40231L6.9853 2.66282ZM10 6.5625C7.75634 6.5625 5.9375 8.38134 5.9375 10.625C5.9375 12.8687 7.75634 14.6875 10 14.6875C12.2437 14.6875 14.0625 12.8687 14.0625 10.625C14.0625 8.38134 12.2437 6.5625 10 6.5625ZM5.3125 10.625C5.3125 8.03617 7.41117 5.9375 10 5.9375C12.5888 5.9375 14.6875 8.03617 14.6875 10.625C14.6875 13.2138 12.5888 15.3125 10 15.3125C7.41117 15.3125 5.3125 13.2138 5.3125 10.625ZM15.9375 7.1875C15.9375 6.84232 16.2173 6.5625 16.5625 6.5625C16.9077 6.5625 17.1875 6.84232 17.1875 7.1875C17.1875 7.53268 16.9077 7.8125 16.5625 7.8125C16.2173 7.8125 15.9375 7.53268 15.9375 7.1875Z"
				fill="black" /></g>
	</symbol>

	<symbol id="svg-cat8" viewBox="0 0 20 20">
		<g>
			<path fill-rule="evenodd" clip-rule="evenodd"
				d="M3.04688 3.4375C2.52911 3.4375 2.10938 3.85723 2.10938 4.375V14.0625H6.74765C7.01798 14.0625 7.27517 14.1792 7.45319 14.3827L7.62655 14.5808C7.68589 14.6486 7.77162 14.6875 7.86173 14.6875H12.1383C12.2284 14.6875 12.3141 14.6486 12.3734 14.5808L12.5468 14.3827C12.7248 14.1792 12.982 14.0625 13.2524 14.0625H17.8906V4.375C17.8906 3.85723 17.4709 3.4375 16.9531 3.4375H3.04688ZM18.5156 14.0625V4.375C18.5156 3.51206 17.8161 2.8125 16.9531 2.8125H3.04688C2.18393 2.8125 1.48438 3.51206 1.48438 4.375V14.0625H0.9375C0.419733 14.0625 0 14.4822 0 15C0 16.2081 0.979378 17.1875 2.1875 17.1875H17.8125C19.0206 17.1875 20 16.2081 20 15C20 14.4822 19.5803 14.0625 19.0625 14.0625H18.5156ZM0.9375 14.6875C0.764911 14.6875 0.625 14.8274 0.625 15C0.625 15.8629 1.32456 16.5625 2.1875 16.5625H17.8125C18.6754 16.5625 19.375 15.8629 19.375 15C19.375 14.8274 19.2351 14.6875 19.0625 14.6875H13.2524C13.1622 14.6875 13.0765 14.7264 13.0172 14.7942L12.8438 14.9923C12.6658 15.1958 12.4086 15.3125 12.1383 15.3125H7.86173C7.59139 15.3125 7.33421 15.1958 7.15619 14.9923L6.98282 14.7942C6.92348 14.7264 6.83776 14.6875 6.74765 14.6875H0.9375Z"
				fill="black" /></g>
	</symbol>

	<symbol id="svg-cat9" viewBox="0 0 20 18">
		<g>
			<path
				d="M19.7071 13.3907C19.8689 13.3907 20 13.2595 20 13.0977V12.5311C20 11.9583 19.5627 11.4924 19.0252 11.4924H18.551V10.8921C18.551 10.472 18.2093 10.1303 17.7893 10.1303H15.4311C15.011 10.1303 14.6693 10.4721 14.6693 10.8921V12.4554C12.5627 12.2096 9.94047 12.2092 7.83031 12.4554V10.8921C7.83031 10.472 7.48856 10.1303 7.06856 10.1303H6.88223C8.48828 9.15229 10.2844 7.82608 11.6848 6.53448L12.6045 7.7987C12.8519 8.13893 13.3296 8.21327 13.6686 7.96667L15.5757 6.57956C15.5757 6.57956 15.5757 6.57956 15.5757 6.57952C15.9153 6.33249 15.9907 5.85511 15.7436 5.51538L15.3905 5.02992L15.7739 4.75105C16.2086 4.4348 16.2882 3.80074 15.9513 3.33754L14.3611 1.15125C14.0241 0.688128 13.3964 0.56848 12.9617 0.88469L12.5782 1.16363L12.2251 0.678206C11.9781 0.338441 11.5007 0.263168 11.161 0.510198L9.25391 1.89731C8.91426 2.14434 8.83891 2.62172 9.08598 2.96144L10.0055 4.22566C8.15688 5.2664 6.03653 6.80823 4.47489 8.2485L3.79844 7.31862C3.4175 6.79491 2.68047 6.67851 2.15684 7.05952L0.918326 7.96034C0.394342 8.34155 0.278131 9.07796 0.659263 9.60198L0.769185 9.75311L0.385787 10.032C-0.057611 10.3544 -0.121634 10.9917 0.208404 11.4455L1.79864 13.6317C1.97262 13.871 2.22762 14.0231 2.49957 14.0635V15.2345C2.49957 15.8073 2.93692 16.2733 3.47446 16.2733H3.9486V16.8736C3.9486 17.2936 4.29036 17.6354 4.71035 17.6354H7.06856C7.48859 17.6354 7.83031 17.2936 7.83031 16.8736V15.3104C8.66293 15.4073 9.59891 15.4682 10.5603 15.4876C10.5623 15.4876 10.5643 15.4876 10.5663 15.4876C10.7254 15.4876 10.8559 15.3603 10.8591 15.2005C10.8624 15.0388 10.7339 14.905 10.5721 14.9017C9.60273 14.8822 8.66105 14.8198 7.83031 14.7205V13.0451C9.90285 12.7967 12.5537 12.7916 14.6693 13.0451V14.7205C13.8386 14.8198 12.8969 14.8822 11.9275 14.9017C11.7658 14.905 11.6372 15.0388 11.6405 15.2005C11.6437 15.3603 11.7742 15.4876 11.9333 15.4876C11.9353 15.4876 11.9373 15.4876 11.9393 15.4876C12.9007 15.4682 13.8367 15.4073 14.6693 15.3104V16.8736C14.6693 17.2936 15.0111 17.6354 15.4311 17.6354H17.7893C18.2093 17.6354 18.551 17.2936 18.551 16.8736V16.2733H19.0252C19.5627 16.2733 20 15.8073 20 15.2345V14.465C20 14.3032 19.8689 14.172 19.7071 14.172C19.5453 14.172 19.4141 14.3032 19.4141 14.465V15.2345C19.4141 15.48 19.236 15.6874 19.0252 15.6874H18.551V12.0784H19.0252C19.236 12.0784 19.4141 12.2857 19.4141 12.5312V13.0978C19.4141 13.2596 19.5453 13.3907 19.7071 13.3907ZM13.3063 1.35856C13.4768 1.23465 13.7428 1.2975 13.8871 1.49598L15.4774 3.68226C15.6218 3.8807 15.5997 4.1532 15.4292 4.27718L15.0458 4.55605C14.8084 4.22957 13.1642 1.96914 12.9229 1.63742L13.3063 1.35856ZM9.55984 2.61684C9.50383 2.53976 9.52156 2.4273 9.59859 2.37125L11.5057 0.984104C11.583 0.927893 11.6953 0.946057 11.7512 1.02289C11.8698 1.18594 14.6027 4.94312 14.7442 5.13773C14.7443 5.13781 14.7443 5.13789 14.7444 5.13796L15.2697 5.86007C15.3257 5.93714 15.308 6.0496 15.2309 6.10566L13.3238 7.4928C13.2464 7.54905 13.1351 7.5321 13.0783 7.45401C12.9627 7.29515 9.69934 2.80859 9.55984 2.61684ZM10.3525 4.70269L11.338 6.05753C9.81371 7.47222 7.67566 9.03612 5.80719 10.0801L4.82184 8.7255C6.34199 7.31452 8.48133 5.74816 10.3525 4.70269ZM2.49957 12.5311V13.4611C2.41243 13.4287 2.33188 13.3686 2.27258 13.287L0.682349 11.1008C0.531373 10.8933 0.565123 10.6262 0.730513 10.5058L1.11391 10.227C1.1604 10.2909 1.52434 10.7912 2.55016 12.2016C2.51524 12.3126 2.49957 12.4271 2.49957 12.5311ZM3.9486 15.6873H3.47446C3.26368 15.6873 3.08555 15.48 3.08555 15.2345C3.08555 14.9698 3.08555 12.807 3.08555 12.5311C3.08555 12.4287 3.11934 12.3182 3.18625 12.2314C3.26594 12.1279 3.37371 12.0783 3.47446 12.0783H3.94856V15.6873H3.9486ZM3.9486 10.892V11.4923H3.47446C3.45067 11.4923 3.42711 11.4935 3.40371 11.4954C3.39957 11.4957 3.39543 11.496 3.39129 11.4964C3.20989 11.5128 3.04254 11.5823 2.90297 11.6903L1.13317 9.25721C0.942076 8.99456 1.00032 8.6253 1.26301 8.43421L2.50153 7.53339C2.76305 7.34304 3.13418 7.40151 3.32454 7.66327C3.53786 7.95651 4.89067 9.81639 5.11895 10.1302H4.71032C4.29036 10.1302 3.9486 10.472 3.9486 10.892ZM7.24438 16.8736C7.24438 16.9688 7.16387 17.0493 7.06859 17.0493H4.71039C4.61512 17.0493 4.53461 16.9688 4.53461 16.8736C4.53461 16.5978 4.53461 11.0718 4.53461 10.8921C4.53461 10.7968 4.61512 10.7163 4.71039 10.7163C5.3066 10.7163 5.63578 10.7163 5.80715 10.7163C5.93067 10.7163 5.97223 10.7163 5.97258 10.7163C6.14387 10.7163 6.47285 10.7163 7.06859 10.7163C7.16387 10.7163 7.24438 10.7968 7.24438 10.8921C7.24438 11.2546 7.24438 16.6506 7.24438 16.8736ZM17.9651 16.8736C17.9651 16.9688 17.8846 17.0493 17.7893 17.0493H15.4311C15.3358 17.0493 15.2553 16.9688 15.2553 16.8736V10.8921C15.2553 10.7968 15.3358 10.7163 15.4311 10.7163H17.7893C17.8846 10.7163 17.9651 10.7968 17.9651 10.8921C17.9651 11.2529 17.9651 16.68 17.9651 16.8736Z"
				fill="black" /></g>
	</symbol>

	<symbol id="svg-cat10" viewBox="0 0 20 20">
		<g>
			<path fill-rule="evenodd" clip-rule="evenodd"
				d="M4.0625 2.1875C4.0625 0.979377 5.04188 0 6.25 0H13.75C14.9581 0 15.9375 0.979377 15.9375 2.1875V17.8125C15.9375 19.0206 14.9581 20 13.75 20H6.25C5.04188 20 4.0625 19.0206 4.0625 17.8125V2.1875ZM6.25 0.625C5.38706 0.625 4.6875 1.32456 4.6875 2.1875V2.8125H15.3125V2.1875C15.3125 1.32456 14.6129 0.625 13.75 0.625H6.25ZM15.3125 3.4375H4.6875V16.5625H15.3125V3.4375ZM15.3125 17.1875H4.6875V17.8125C4.6875 18.6754 5.38706 19.375 6.25 19.375H13.75C14.6129 19.375 15.3125 18.6754 15.3125 17.8125V17.1875ZM8.75 1.875C8.75 1.70241 8.88991 1.5625 9.0625 1.5625H10.9375C11.1101 1.5625 11.25 1.70241 11.25 1.875C11.25 2.04759 11.1101 2.1875 10.9375 2.1875H9.0625C8.88991 2.1875 8.75 2.04759 8.75 1.875ZM9.375 18.125C9.375 17.9524 9.51491 17.8125 9.6875 17.8125H10.3125C10.4851 17.8125 10.625 17.9524 10.625 18.125C10.625 18.2976 10.4851 18.4375 10.3125 18.4375H9.6875C9.51491 18.4375 9.375 18.2976 9.375 18.125Z"
				fill="black" /></g>
	</symbol>

	<symbol id="svg-cat11" viewBox="0 0 20 20">
		<g>
			<path fill-rule="evenodd" clip-rule="evenodd"
				d="M0.3125 9.81855C0.3125 6.63957 2.88957 4.0625 6.06855 4.0625H13.9315C17.1104 4.0625 19.6875 6.63957 19.6875 9.81855V11.3514C19.6875 13.6838 17.7967 15.5746 15.4643 15.5746C14.5918 15.5746 13.7651 15.1844 13.2105 14.511L12.6378 13.8156C12.2146 13.3017 11.5838 13.004 10.9181 13.004H9.08188C8.41619 13.004 7.78538 13.3017 7.3622 13.8156L6.78952 14.511C6.23491 15.1844 5.40818 15.5746 4.53574 15.5746C2.20331 15.5746 0.3125 13.6838 0.3125 11.3514V9.81855ZM6.06855 4.6875C3.23475 4.6875 0.9375 6.98475 0.9375 9.81855V11.3514C0.9375 13.3386 2.54849 14.9496 4.53574 14.9496C5.22142 14.9496 5.87117 14.643 6.30706 14.1137L6.87974 13.4183C7.42165 12.7602 8.22943 12.379 9.08188 12.379H10.9181C11.7706 12.379 12.5784 12.7602 13.1203 13.4183L13.6929 14.1137C14.1288 14.643 14.7786 14.9496 15.4643 14.9496C17.4515 14.9496 19.0625 13.3386 19.0625 11.3514V9.81855C19.0625 6.98475 16.7653 4.6875 13.9315 4.6875H6.06855ZM15.1411 7.71169C14.9797 7.71169 14.8488 7.84258 14.8488 8.00403C14.8488 8.16549 14.9797 8.29637 15.1411 8.29637C15.3026 8.29637 15.4335 8.16549 15.4335 8.00403C15.4335 7.84258 15.3026 7.71169 15.1411 7.71169ZM14.2238 8.00403C14.2238 7.4974 14.6345 7.08669 15.1411 7.08669C15.6478 7.08669 16.0585 7.4974 16.0585 8.00403C16.0585 8.51066 15.6478 8.92137 15.1411 8.92137C14.6345 8.92137 14.2238 8.51066 14.2238 8.00403ZM4.85887 7.38911C5.03146 7.38911 5.17137 7.52902 5.17137 7.70161V9.50605H6.97581C7.1484 9.50605 7.28831 9.64596 7.28831 9.81855C7.28831 9.99114 7.1484 10.131 6.97581 10.131H5.17137V11.9355C5.17137 12.1081 5.03146 12.248 4.85887 12.248C4.68628 12.248 4.54637 12.1081 4.54637 11.9355V10.131H2.74194C2.56935 10.131 2.42944 9.99114 2.42944 9.81855C2.42944 9.64596 2.56935 9.50605 2.74194 9.50605H4.54637V7.70161C4.54637 7.52902 4.68628 7.38911 4.85887 7.38911ZM13.3266 9.52621C13.1652 9.52621 13.0343 9.65709 13.0343 9.81855C13.0343 9.98 13.1652 10.1109 13.3266 10.1109C13.4881 10.1109 13.619 9.98 13.619 9.81855C13.619 9.65709 13.4881 9.52621 13.3266 9.52621ZM12.4093 9.81855C12.4093 9.31192 12.82 8.90121 13.3266 8.90121C13.8332 8.90121 14.244 9.31192 14.244 9.81855C14.244 10.3252 13.8332 10.7359 13.3266 10.7359C12.82 10.7359 12.4093 10.3252 12.4093 9.81855ZM16.9556 9.52621C16.7942 9.52621 16.6633 9.65709 16.6633 9.81855C16.6633 9.98 16.7942 10.1109 16.9556 10.1109C17.1171 10.1109 17.248 9.98 17.248 9.81855C17.248 9.65709 17.1171 9.52621 16.9556 9.52621ZM16.0383 9.81855C16.0383 9.31192 16.449 8.90121 16.9556 8.90121C17.4623 8.90121 17.873 9.31192 17.873 9.81855C17.873 10.3252 17.4623 10.7359 16.9556 10.7359C16.449 10.7359 16.0383 10.3252 16.0383 9.81855ZM15.1411 11.3407C14.9797 11.3407 14.8488 11.4716 14.8488 11.6331C14.8488 11.7945 14.9797 11.9254 15.1411 11.9254C15.3026 11.9254 15.4335 11.7945 15.4335 11.6331C15.4335 11.4716 15.3026 11.3407 15.1411 11.3407ZM14.2238 11.6331C14.2238 11.1264 14.6345 10.7157 15.1411 10.7157C15.6478 10.7157 16.0585 11.1264 16.0585 11.6331C16.0585 12.1397 15.6478 12.5504 15.1411 12.5504C14.6345 12.5504 14.2238 12.1397 14.2238 11.6331Z"
				fill="black" /></g>
	</symbol>

	<symbol id="svg-ben1" viewBox="0 0 45 45">
		<g>
			<g clip-path="url(#clip10)">
				<path
					d="M42.6451 22.6709L41.5927 22.1549C41.6004 21.4116 41.5889 20.7363 41.5927 20.1006C41.5927 16.8298 40.7537 13.617 39.163 10.7759C39.5348 10.2398 39.5532 9.52444 39.1761 8.96019C37.7782 6.86821 36.0243 5.07498 33.963 3.63023C32.613 2.684 31.1511 1.9067 29.6178 1.31977C29.2778 1.1896 28.8967 1.35976 28.7665 1.69972C28.6363 2.03977 28.8065 2.42086 29.1465 2.55103C30.5788 3.09929 31.9448 3.82562 33.2063 4.70988C35.1333 6.06059 36.7731 7.7371 38.0799 9.69275C38.1624 9.81606 38.143 9.97849 38.0341 10.0789C37.9342 10.158 35.7328 12.229 35.5997 12.3096C35.5327 12.3431 35.4681 12.3423 35.43 12.3372C35.3763 12.3299 35.276 12.3013 35.2079 12.1918C34.3425 10.8008 33.2619 9.56575 31.9963 8.52082C29.3153 6.30738 25.9257 5.08834 22.4519 5.08834C18.7991 5.08834 15.2764 6.42094 12.5327 8.84074C11.4527 9.79312 10.5161 10.8923 9.74883 12.1075C9.68546 12.2077 9.58948 12.2324 9.5378 12.2382C9.48375 12.2443 9.37986 12.2411 9.29057 12.1517L7.00181 9.86282C6.89985 9.76078 6.88553 9.60003 6.96779 9.48041C7.93819 8.0702 9.0965 6.7972 10.4106 5.69672C13.7824 2.87332 18.0588 1.31836 22.452 1.31836C23.6603 1.31836 24.8694 1.43438 26.0459 1.66324C26.4031 1.73276 26.7492 1.49941 26.8188 1.14205C26.8883 0.784688 26.6549 0.438662 26.2976 0.369141C25.0385 0.124189 23.7446 0 22.452 0C17.7499 0 13.1729 1.6643 9.56417 4.68615C8.15871 5.86318 6.91972 7.22487 5.88173 8.73325C5.4842 9.31104 5.50881 10.0687 5.91724 10.6167C5.26263 11.7396 4.72192 12.9232 4.30831 14.1423C4.19133 14.487 4.37608 14.8613 4.72078 14.9783C4.79101 15.0021 4.86237 15.0134 4.9326 15.0134C5.20726 15.0134 5.46363 14.8403 5.5568 14.5659C5.90309 13.5452 6.34623 12.5515 6.87516 11.6007L8.28281 13.0084C7.16484 15.2457 6.57554 17.7365 6.57554 20.2488V33.9724L2.93537 32.1877C2.50655 31.9774 2.22943 31.533 2.22943 31.0555V24.9868C2.22943 24.5092 2.50655 24.0648 2.93537 23.8546C3.15791 23.7356 3.60694 23.5397 3.97855 23.3429C4.38021 23.1275 4.62973 22.7103 4.62973 22.2543V20.2567C4.62498 19.4084 4.68352 18.5523 4.80366 17.7122C4.85525 17.3517 4.60485 17.0178 4.2445 16.9663C3.88459 16.9146 3.55025 17.1651 3.49866 17.5255C3.36929 18.4297 3.30636 19.3511 3.31137 20.2604V22.2044C3.14649 22.2955 2.59875 22.543 2.33104 22.6827C1.4676 23.1175 0.911163 24.0188 0.911163 24.9868V31.0555C0.911163 32.0323 1.47797 32.9414 2.35503 33.3715L6.75202 35.5271C7.21415 36.9295 8.53585 37.945 10.0911 37.945C12.0295 37.945 13.6065 36.3681 13.6065 34.4297V22.5728C13.6065 20.6343 12.0295 19.0573 10.0911 19.0573C9.26332 19.0573 8.50201 19.3456 7.90066 19.8261C7.96289 17.6471 8.50482 15.4977 9.48138 13.558C9.54861 13.5588 9.6162 13.556 9.68414 13.5483C10.1724 13.4938 10.6023 13.2253 10.8637 12.8112C11.5639 11.7021 12.4189 10.6988 13.4048 9.82942C15.9076 7.62223 19.1206 6.40661 22.452 6.40661C25.6202 6.40661 28.7117 7.51843 31.157 9.53736C32.3124 10.4912 33.2987 11.6185 34.0886 12.8881C34.3467 13.3029 34.7712 13.5783 35.2533 13.6435C35.3261 13.6534 35.3987 13.6582 35.4711 13.6582C35.5029 13.6582 35.5344 13.6557 35.566 13.6538C36.5123 15.5678 37.0382 17.6836 37.0995 19.8261C36.4982 19.3455 35.7369 19.0572 34.909 19.0572C32.9706 19.0572 31.3936 20.6343 31.3936 22.5727V24.5496C31.3936 24.9137 31.6887 25.2088 32.0527 25.2088C32.4168 25.2088 32.7119 24.9137 32.7119 24.5496V22.5727C32.7119 21.3612 33.6975 20.3756 34.909 20.3756C36.1205 20.3756 37.1061 21.3612 37.1061 22.5727V34.4296C37.1061 35.641 36.1205 36.6266 34.909 36.6266C33.6975 36.6266 32.7119 35.641 32.7119 34.4296V27.8733C32.7119 27.5092 32.4168 27.2141 32.0527 27.2141C31.6887 27.2141 31.3936 27.5092 31.3936 27.8733V34.4296C31.3936 36.368 32.9706 37.9449 34.909 37.9449C35.7398 37.9449 36.5037 37.6546 37.1061 37.1709V38.7411C37.1061 39.2154 36.7202 39.6013 36.2459 39.6013H28.348C28.1426 38.9932 27.5679 38.5537 26.8915 38.5537H21.9071C21.059 38.5537 20.369 39.2437 20.369 40.0917V43.4619C20.369 44.31 21.059 45 21.9071 45H26.8915C27.5656 45 28.1385 44.5634 28.3457 43.9585H32.6254C32.9894 43.9585 33.2845 43.6634 33.2845 43.2993C33.2845 42.9353 32.9894 42.6401 32.6254 42.6401H28.4295V40.9198H36.2459C37.4471 40.9198 38.4245 39.9424 38.4245 38.7412V35.4406L40.1448 34.5972V40.4505C40.1448 41.6579 39.1626 42.6401 37.9552 42.6401H35.9137C35.5496 42.6401 35.2545 42.9353 35.2545 43.2993C35.2545 43.6634 35.5496 43.9585 35.9137 43.9585H37.9552C39.8895 43.9585 41.4632 42.3848 41.4632 40.4505V33.9508L42.6451 33.3715C43.5221 32.9414 44.0889 32.0324 44.0889 31.0555V24.9868C44.0889 24.01 43.5221 23.1009 42.6451 22.6709V22.6709ZM10.091 20.3758C11.3025 20.3758 12.2881 21.3614 12.2881 22.5729V34.4297C12.2881 35.6411 11.3025 36.6267 10.091 36.6267C8.8795 36.6267 7.8939 35.6411 7.8939 34.4297V22.5728C7.8939 21.3613 8.8795 20.3758 10.091 20.3758V20.3758ZM21.6873 43.4619V40.0919C21.6873 39.9708 21.7859 39.8722 21.907 39.8722H23.74V43.6816H21.907C21.7859 43.6816 21.6873 43.583 21.6873 43.4619V43.4619ZM27.1111 43.4619C27.1111 43.583 27.0125 43.6816 26.8914 43.6816H25.0584V39.8722H26.8914C27.0125 39.8722 27.1111 39.9708 27.1111 40.0919V43.4619ZM42.7706 31.0555C42.7706 31.5331 42.4934 31.9775 42.0646 32.1877L38.4245 33.9725C38.4245 32.2913 38.4245 21.6179 38.4245 20.2489C38.4245 17.7579 37.8446 15.2856 36.7445 13.0629L38.1846 11.734C39.5518 14.2966 40.2723 17.1673 40.2744 20.0883C40.2696 20.6357 40.2828 21.3698 40.2735 22.2546C40.2694 22.691 40.5196 23.097 40.9111 23.2891L42.0647 23.8547C42.4935 24.0649 42.7707 24.5093 42.7707 24.9869V31.0555H42.7706Z"
					fill="black" />
				<path
					d="M28.4283 20.3525C28.3808 19.782 28.0482 19.3199 27.581 19.1751C27.3608 19.1069 26.7906 19.0198 26.2502 19.6829C25.7477 20.2995 23.2228 24.8612 22.7217 25.7694C22.6091 25.9735 22.6127 26.2221 22.7312 26.4229C22.8498 26.6237 23.0657 26.747 23.2988 26.747H27.1051C27.1002 27.4464 27.0948 28.1212 27.0897 28.7201C27.0866 29.0842 27.3792 29.3818 27.7432 29.3849H27.749C28.1103 29.3849 28.4049 29.0936 28.408 28.7314C28.41 28.4973 28.4165 27.7298 28.4236 26.7469H28.9117C29.2758 26.7469 29.5709 26.4517 29.5709 26.0877C29.5709 25.7237 29.2758 25.4285 28.9117 25.4285H28.4324C28.4461 23.216 28.4551 20.675 28.4283 20.3525V20.3525ZM27.114 25.4286H24.4182C25.408 23.651 26.6468 21.467 27.1224 20.7316C27.1328 21.4551 27.1261 23.4125 27.114 25.4286V25.4286Z"
					fill="black" />
				<path
					d="M21.6574 28.7844C21.6528 28.4203 21.3575 28.1313 20.9899 28.1335C19.7892 28.1486 18.5023 28.157 17.6213 28.1532C18.1161 27.5025 18.9255 26.4226 20.1649 24.6516C20.7632 23.7635 21.2192 22.9242 21.2785 21.9873C21.2785 20.3628 19.9568 19.0411 18.3322 19.0411C16.9275 19.0411 15.7117 20.0403 15.4412 21.417C15.3711 21.7742 15.6038 22.1207 15.961 22.1909C16.3183 22.2609 16.6648 22.0283 16.7349 21.6711C16.8841 20.9111 17.556 20.3594 18.3322 20.3594C19.2169 20.3594 19.9391 21.069 19.9597 21.9488C19.9094 22.5429 19.5841 23.1484 19.0847 23.8955C17.6649 25.9242 16.8172 27.0343 16.3617 27.6306C15.8201 28.3397 15.6568 28.5537 15.7759 28.9413C15.8433 29.1606 16.0107 29.3293 16.235 29.404C16.6936 29.527 19.5213 29.4585 21.0064 29.4517C21.3705 29.4471 21.662 29.1484 21.6574 28.7844V28.7844Z"
					fill="black" />
			</g>
			<defs>
				<clipPath id="clip10">
					<rect width="45" height="45" fill="white" />
				</clipPath>
			</defs></g>
	</symbol>

	<symbol id="svg-ben2" viewBox="0 0 45 45">
		<g>
			<path
				d="M31.8101 34.1604C31.7594 33.4954 31.231 32.9669 30.5659 32.9161C29.822 32.9728 29.265 33.6217 29.3216 34.3655C29.3723 35.0305 29.9008 35.5589 30.5659 35.6097C31.3097 35.5531 31.8667 34.9041 31.8101 34.1604Z"
				fill="black" />
			<path
				d="M35.1047 33.0049C35.0541 32.3399 34.5256 31.8114 33.8605 31.7607C33.1167 31.8174 32.5597 32.4663 32.6163 33.21C32.667 33.875 33.1955 34.4035 33.8605 34.4542C34.6044 34.3976 35.1613 33.7486 35.1047 33.0049Z"
				fill="black" />
			<path
				d="M44.9939 12.4609V12.3984C44.9768 12.355 44.9559 12.3132 44.9314 12.2735L44.8845 12.211L44.7909 12.1095L44.7362 12.0627L44.6347 12.0158H44.5957L27.6381 5.08289C27.4503 5.00697 27.2403 5.00697 27.0525 5.08289L10.134 11.8987H10.0949L9.99343 11.9456L9.93878 11.9924L9.84509 12.0939L9.79824 12.1564C9.77375 12.1961 9.75286 12.2379 9.73579 12.2813V12.3437C9.72759 12.4085 9.72759 12.4741 9.73579 12.5389V18.7848H0.780737C0.349575 18.7848 0 19.1344 0 19.5656C0 19.9967 0.349575 20.3463 0.780737 20.3463V20.4478H9.6421V23.1179H6.60503C6.17387 23.1179 5.8243 23.4675 5.8243 23.8986C5.8243 24.3298 6.17387 24.6794 6.60503 24.6794H9.6421V27.3495H2.44371C2.01254 27.3495 1.66297 27.6991 1.66297 28.1302C1.66297 28.5614 2.01254 28.911 2.44371 28.911H9.6421V32.1744C9.64366 32.4897 9.83465 32.773 10.1262 32.8927L27.0525 39.9193C27.1371 39.9529 27.227 39.9714 27.318 39.974C27.4089 39.9714 27.4988 39.9529 27.5834 39.9193L44.5098 32.8927C44.8013 32.773 44.9923 32.4897 44.9939 32.1744V12.656C45.002 12.5912 45.002 12.5257 44.9939 12.4609ZM27.3414 6.66779L33.7591 9.23641L19.1593 15.412L12.484 12.6326L27.3414 6.66779ZM26.5372 38.0378L11.2036 31.6513V28.9032H14.4436C14.8748 28.9032 15.2244 28.5536 15.2244 28.1224C15.2244 27.6913 14.8748 27.3417 14.4436 27.3417H11.2036V24.6716H18.6206C19.0517 24.6716 19.4013 24.322 19.4013 23.8908C19.4013 23.4597 19.0517 23.1101 18.6206 23.1101H11.2036V20.4478H12.765C13.1962 20.4478 13.5458 20.0982 13.5458 19.667C13.5458 19.2359 13.1962 18.8863 12.765 18.8863H11.2036V13.7959L17.1684 16.263L26.5372 20.1667V38.0378ZM27.3492 18.8473L21.1814 16.263L35.7968 10.064L42.191 12.6404L32.8768 16.5441L27.3492 18.8473ZM28.1221 38.0378V20.1667L32.5177 18.3398L43.448 13.7803L43.487 31.6513L28.1221 38.0378Z"
				fill="black" /></g>
	</symbol>

	<symbol id="svg-ben3" viewBox="0 0 45 45">
		<g>
			<path
				d="M35.7749 33.8572C35.376 33.5805 34.8284 33.68 34.552 34.0789C34.2841 34.4656 33.9805 34.8416 33.6492 35.1966C33.4273 35.4347 33.122 35.7217 32.7898 36.0044C32.4201 36.3191 32.3754 36.8737 32.69 37.2435C32.8638 37.4477 33.1111 37.5527 33.3598 37.5527C33.5612 37.5527 33.7636 37.4839 33.9291 37.3431C34.3167 37.0131 34.6646 36.6855 34.9348 36.3953C35.3235 35.9789 35.6808 35.5364 35.9969 35.0801C36.2733 34.6811 36.174 34.1336 35.7749 33.8572Z"
				fill="black" />
			<path
				d="M31.9459 37.798C31.7397 37.3585 31.2166 37.1694 30.7769 37.3755L30.7494 37.3879C30.3053 37.5838 30.1042 38.1027 30.3003 38.5468C30.4453 38.8755 30.7672 39.0711 31.1048 39.0711C31.2233 39.0711 31.3438 39.0469 31.4591 38.996C31.4806 38.9866 31.5018 38.9769 31.5232 38.967C31.9627 38.7608 32.1519 38.2376 31.9459 37.798Z"
				fill="black" />
			<path
				d="M42.3743 2.28523H2.62573C1.17782 2.28523 0 3.46323 0 4.91096V29.5424C0 30.9901 1.17782 32.168 2.62573 32.168H21.1342C21.9188 35.4876 23.6931 37.8387 25.2437 39.3449C27.5071 41.5438 30.1016 42.7148 31.1043 42.7148C32.107 42.7148 34.7015 41.5439 36.965 39.345C38.5156 37.8387 40.29 35.4876 41.0745 32.1681H42.3743C43.8221 32.1681 45 30.9902 45 29.5425V4.91096C45 3.46323 43.8221 2.28523 42.3743 2.28523ZM39.7265 28.5661C39.7266 33.1968 37.589 36.2685 35.7957 38.0299C33.6685 40.1194 31.4864 40.9321 31.1043 40.9568C30.7222 40.9321 28.5401 40.1194 26.4128 38.0299C24.6197 36.2685 22.4821 33.1968 22.4821 28.5661V24.2378C25.5082 23.3627 28.3397 22.165 31.1046 20.5911C33.8072 22.125 36.7656 23.376 39.7265 24.2373V28.5661ZM43.2422 29.5424C43.2422 30.0209 42.8528 30.4102 42.3743 30.4102H41.3801C41.4475 29.8212 41.4844 29.207 41.4844 28.5661V23.5714C41.4844 23.1747 41.2186 22.8273 40.8358 22.7233C37.6443 21.8566 34.4327 20.5061 31.5483 18.8178C31.2741 18.6573 30.9346 18.6575 30.6602 18.818C27.6941 20.5541 24.6562 21.8315 21.3729 22.7233C20.9901 22.8273 20.7243 23.1748 20.7243 23.5714V28.5661C20.7243 29.207 20.7611 29.8212 20.8285 30.4102H2.62573C2.14716 30.4102 1.75781 30.0208 1.75781 29.5424V14.5897H43.2422V29.5424ZM43.2422 12.832H1.75781V9.31656H43.2422V12.832ZM43.2422 7.55866H1.75781V4.91096C1.75781 4.4324 2.14716 4.04304 2.62573 4.04304H42.3743C42.8528 4.04304 43.2422 4.4324 43.2422 4.91096V7.55866Z"
				fill="black" />
			<path
				d="M10.5466 20.7424C10.0167 20.7424 9.49349 20.8496 9.00922 21.0538C8.5361 20.8533 8.01614 20.7424 7.47087 20.7424C5.29005 20.7424 3.51572 22.5166 3.51572 24.6973C3.51572 26.8781 5.28996 28.6524 7.47087 28.6524C8.01614 28.6524 8.5361 28.5415 9.00913 28.341C9.49349 28.5453 10.0167 28.6524 10.5466 28.6524C12.7275 28.6524 14.5018 26.8781 14.5018 24.6973C14.5018 22.5166 12.7275 20.7424 10.5466 20.7424ZM7.47087 26.8946C6.25922 26.8946 5.27352 25.909 5.27352 24.6973C5.27352 23.4858 6.25922 22.5002 7.47087 22.5002C8.68235 22.5002 9.66804 23.4858 9.66804 24.6973C9.66804 25.9089 8.68235 26.8946 7.47087 26.8946ZM10.7645 26.8839C11.182 26.2571 11.4259 25.5052 11.4259 24.6974C11.4259 23.8896 11.182 23.1379 10.7646 22.5111C11.8742 22.6208 12.7439 23.5595 12.7439 24.6974C12.7439 25.8353 11.8742 26.7741 10.7645 26.8839Z"
				fill="black" />
			<path
				d="M8.91523 16.7872H4.39441C3.90899 16.7872 3.5155 17.1807 3.5155 17.6661C3.5155 18.1514 3.90899 18.545 4.39441 18.545H8.91523C9.40065 18.545 9.79413 18.1513 9.79413 17.6661C9.79413 17.1807 9.40065 16.7872 8.91523 16.7872Z"
				fill="black" />
			<path
				d="M11.5133 16.7872H11.4717C10.9863 16.7872 10.5928 17.1807 10.5928 17.6661C10.5928 18.1514 10.9863 18.545 11.4717 18.545H11.5133C11.9987 18.545 12.3922 18.1513 12.3922 17.6661C12.3922 17.1807 11.9987 16.7872 11.5133 16.7872Z"
				fill="black" />
			<path
				d="M35.9287 26.5452C35.5857 26.2022 35.0292 26.202 34.6859 26.5451L29.9857 31.2449L27.5228 28.7818C27.1795 28.4388 26.623 28.4386 26.2798 28.7818C25.9365 29.1251 25.9365 29.6816 26.2798 30.0248L29.3643 33.1094C29.5359 33.281 29.7608 33.3669 29.9857 33.3669C30.2106 33.3669 30.4356 33.281 30.6071 33.1094L35.9286 27.7882C36.2719 27.4451 36.2719 26.8886 35.9287 26.5452Z"
				fill="black" /></g>
	</symbol>

	<symbol id="svg-ben4" viewBox="0 0 45 45">
		<g>
			<g clip-path="url(#clip40)">
				<path
					d="M22.4586 17.4475C19.4538 17.4475 17.0176 19.8837 17.0176 22.8885C17.0176 25.8936 19.4538 28.3295 22.4586 28.3295C25.4637 28.3295 27.8996 25.8936 27.8996 22.8885C27.8962 19.8852 25.4622 17.4509 22.4586 17.4475V17.4475ZM22.4586 26.7749C20.3123 26.7749 18.5722 25.0351 18.5722 22.8885C18.5722 20.7422 20.3123 19.0021 22.4586 19.0021C24.6052 19.0021 26.345 20.7422 26.345 22.8885C26.3427 25.034 24.6041 26.7726 22.4586 26.7749V26.7749Z"
					fill="black" />
				<path
					d="M6.13568 15.1156H7.69024V13.5611H5.3584C4.92915 13.5611 4.58112 13.9091 4.58112 14.3384V16.6702H6.13568V15.1156Z"
					fill="black" />
				<path
					d="M6.13568 29.1067H4.58112V31.4386C4.58112 31.8682 4.92915 32.2159 5.3584 32.2159H7.69024V30.6613H6.13568V29.1067Z"
					fill="black" />
				<path
					d="M1.47198 11.2292V34.5477C1.47198 34.9773 1.82002 35.325 2.24927 35.325H42.668C43.0976 35.325 43.4452 34.9773 43.4452 34.5477V11.2292C43.4452 10.8 43.0976 10.452 42.668 10.452H2.24927C1.82002 10.452 1.47198 10.8 1.47198 11.2292V11.2292ZM3.02655 12.0065H41.8907V33.7704H3.02655V12.0065Z"
					fill="black" />
				<path
					d="M39.5588 19.0021C36.9845 18.9998 34.8978 16.9131 34.8951 14.3384C34.8951 13.9091 34.5475 13.5611 34.1179 13.5611H10.7994C10.3701 13.5611 10.0221 13.9091 10.0221 14.3384C10.0198 16.9131 7.93315 18.9998 5.3584 19.0021C4.92915 19.0021 4.58112 19.3501 4.58112 19.7793V25.9976C4.58112 26.4272 4.92915 26.7749 5.3584 26.7749C7.93315 26.7775 10.0198 28.8642 10.0221 31.4386C10.0221 31.8682 10.3701 32.2159 10.7994 32.2159H34.1179C34.5475 32.2159 34.8951 31.8682 34.8951 31.4386C34.8978 28.8642 36.9845 26.7775 39.5588 26.7749C39.9885 26.7749 40.3361 26.4272 40.3361 25.9976V19.7793C40.3361 19.3501 39.9885 19.0021 39.5588 19.0021V19.0021ZM38.7816 25.2685C35.9658 25.6283 33.7486 27.8455 33.3888 30.6613H11.5285C11.1687 27.8455 8.95181 25.6283 6.13568 25.2685V20.5084C8.95181 20.1486 11.1687 17.9318 11.5285 15.1156H33.3888C33.7486 17.9318 35.9658 20.1486 38.7816 20.5084V25.2685Z"
					fill="black" />
				<path
					d="M39.5589 13.5611H37.2271V15.1156H38.7816V16.6702H40.3362V14.3384C40.3362 13.9091 39.9885 13.5611 39.5589 13.5611Z"
					fill="black" />
				<path
					d="M38.7816 30.6613H37.2271V32.2159H39.5589C39.9885 32.2159 40.3362 31.8682 40.3362 31.4386V29.1067H38.7816V30.6613Z"
					fill="black" />
				<path
					d="M11.9653 4.71038L12.7426 6.05506C18.0291 3.00666 24.4405 2.61877 30.0561 5.00717L26.775 6.64713L27.4699 8.0385L32.1336 5.70665C32.3188 5.61556 32.46 5.45388 32.526 5.25842C32.5921 5.06258 32.5777 4.84853 32.4858 4.6637L30.154 0L28.7626 0.694924L30.0838 3.33761C24.1494 1.02018 17.4833 1.52496 11.9653 4.71038V4.71038Z"
					fill="black" />
				<path
					d="M32.1747 40.2897L31.3974 38.945C26.1113 41.993 19.7002 42.3813 14.085 39.9929L17.3661 38.3525L16.6712 36.9612L12.0075 39.293C11.623 39.4851 11.467 39.9523 11.6594 40.3364L13.9913 45L15.3823 44.3051L14.0611 41.6624C19.9944 43.9783 26.6586 43.4736 32.1747 40.2897Z"
					fill="black" />
			</g>
			<defs>
				<clipPath id="clip40">
					<rect width="45" height="45" fill="white" />
				</clipPath>
			</defs></g>
	</symbol>

	<symbol id="svg-check"  viewBox="0 0 11 11">
		<g>
			<path
				d="M7.68141 3.6147C7.89421 3.43872 8.20938 3.46857 8.38537 3.68137C8.54179 3.87052 8.53559 4.14057 8.38283 4.32184L8.3187 4.38532L4.40526 7.62168L2.72378 6.50696C2.49362 6.35438 2.43073 6.04411 2.58331 5.81395C2.71894 5.60936 2.97916 5.53694 3.19697 5.63054L3.27633 5.67348L4.33905 6.37801L7.68141 3.6147Z"
				fill="#00BC52" />
			<path fill-rule="evenodd" clip-rule="evenodd"
				d="M11 5.5C11 2.46243 8.53757 0 5.5 0C2.46243 0 0 2.46243 0 5.5C0 8.53757 2.46243 11 5.5 11C8.53757 11 11 8.53757 11 5.5ZM1 5.5C1 3.01472 3.01472 1 5.5 1C7.98528 1 10 3.01472 10 5.5C10 7.98528 7.98528 10 5.5 10C3.01472 10 1 7.98528 1 5.5Z"
				fill="#00BC52" />
			</g>
	</symbol>

	<symbol id="svg-delete" viewBox="0 0 72 76">
		<g>
			<path
				d="M69.0038 20.0175C68.9308 20.0175 68.8212 20.0175 68.7116 20.0175C49.3881 18.0815 30.1011 17.3509 10.9967 19.2869L3.54492 20.0175C2.01073 20.1636 0.659182 19.0677 0.513069 17.5335C0.366955 15.9993 1.46281 14.6843 2.96047 14.5382L10.4123 13.8076C29.8454 11.8351 49.5342 12.6022 69.2595 14.5382C70.7572 14.6843 71.8531 16.0359 71.7069 17.5335C71.5974 18.9581 70.3919 20.0175 69.0038 20.0175Z"
			/>
			<path
				d="M23.3472 16.3282C23.2011 16.3282 23.055 16.3282 22.8723 16.2916C21.4112 16.0359 20.3884 14.6113 20.6441 13.1502L21.4477 8.36499C22.0322 4.85827 22.8358 0 31.3468 0H40.9172C49.4648 0 50.2684 5.04091 50.8164 8.40152L51.62 13.1502C51.8757 14.6479 50.8529 16.0725 49.3918 16.2916C47.8941 16.5473 46.4695 15.5245 46.2503 14.0634L45.4467 9.31473C44.9353 6.13676 44.8257 5.51578 40.9537 5.51578H31.3833C27.5114 5.51578 27.4384 6.02718 26.8904 9.2782L26.0503 14.0269C25.8311 15.3784 24.6622 16.3282 23.3472 16.3282Z"
			/>
			<path
				d="M47.8565 78.5363H24.4052C11.6569 78.5363 11.1455 71.4863 10.7436 65.7879L8.3693 29.0038C8.25972 27.5061 9.42863 26.1911 10.9263 26.0815C12.4605 26.0085 13.739 27.1409 13.8486 28.6385L16.2229 65.4226C16.6247 70.9749 16.7708 73.0571 24.4052 73.0571H47.8565C55.5274 73.0571 55.6736 70.9749 56.0388 65.4226L58.4132 28.6385C58.5228 27.1409 59.8378 26.0085 61.3355 26.0815C62.8331 26.1911 64.002 27.4696 63.8924 29.0038L61.5181 65.7879C61.1163 71.4863 60.6049 78.5363 47.8565 78.5363Z"
			/>
			<path
				d="M42.1935 58.4454H30.0295C28.5318 58.4454 27.2898 57.2034 27.2898 55.7057C27.2898 54.2081 28.5318 52.9661 30.0295 52.9661H42.1935C43.6911 52.9661 44.9331 54.2081 44.9331 55.7057C44.9331 57.2034 43.6911 58.4454 42.1935 58.4454Z"
			/>
			<path
				d="M45.2615 43.834H26.9973C25.4997 43.834 24.2577 42.5921 24.2577 41.0944C24.2577 39.5967 25.4997 38.3548 26.9973 38.3548H45.2615C46.7592 38.3548 48.0011 39.5967 48.0011 41.0944C48.0011 42.5921 46.7592 43.834 45.2615 43.834Z"
			/>
		</g>
	</symbol>
	<symbol id="svg-close" viewBox="0 0 78 78">
		<g>
			<path
				d="M39.11 74.845C58.6955 74.845 74.72 58.8205 74.72 39.235C74.72 19.6495 58.6955 3.62498 39.11 3.62498C19.5245 3.62498 3.5 19.6495 3.5 39.235C3.5 58.8205 19.5245 74.845 39.11 74.845Z"
				stroke-width="5.3415" stroke-linecap="round"
				stroke-linejoin="round" />
			<path d="M29.0323 49.3126L49.1876 29.1575" stroke-width="5.3415"
				stroke-linecap="round" stroke-linejoin="round" />
			<path d="M49.1876 49.3126L29.0323 29.1575" stroke-width="5.3415"
				stroke-linecap="round" stroke-linejoin="round" />
		</g>
	</symbol>

	<symbol id="svg-chevron-left" viewBox="0 0 5 9">
		<g>
			<path  fill-rule="evenodd"
				d="M1.935 4.209a.5.5 0 00.004.65l2.439 2.814a.5.5 0 01-.756.655L1.183 5.514a1.5 1.5 0 01-.01-1.952L3.618.677a.5.5 0 11.763.646L1.935 4.21z"
				clip-rule="evenodd"></path>
		</g>
	</symbol>

	<symbol id="svg-chevron-right" viewBox="0 0 5 9">
		<g>
			<path  fill-rule="evenodd"
				d="M3.065 4.791a.5.5 0 00-.004-.65L.622 1.327a.5.5 0 01.756-.655l2.439 2.814a1.5 1.5 0 01.01 1.952L1.382 8.323a.5.5 0 11-.763-.646L3.065 4.79z"
				clip-rule="evenodd"></path>
		</g>
	</symbol>

	<symbol id="svg-chevron-top" viewBox="0 0 17 10">
		<g>
            <path fill-rule="evenodd"
				d="M9.016 3.553a1.003 1.003 0 00-1.481.01L2.793 8.668a1.003 1.003 0 01-1.482.009A1.167 1.167 0 011.303 7.1l4.742-5.106c1.22-1.315 3.21-1.327 4.444-.027l4.867 5.124c.411.434.415 1.14.008 1.578a1.003 1.003 0 01-1.482.009L9.016 3.553z"
				clip-rule="evenodd"></path>
		</g>
	</symbol>

	<symbol id="svg-display-row" viewBox="0 0 18 18">
		<g>
				
			<path  stroke-width="1.5"
				d="M4.8 1H1.2a.2.2 0 00-.2.2v3.029c0 .11.09.2.2.2h3.6a.2.2 0 00.2-.2V1.2a.2.2 0 00-.2-.2zM16.8 1H8.2a.2.2 0 00-.2.2v3.029c0 .11.09.2.2.2h8.6a.2.2 0 00.2-.2V1.2a.2.2 0 00-.2-.2zM4.8 7.286H1.2a.2.2 0 00-.2.2v3.028c0 .11.09.2.2.2h3.6a.2.2 0 00.2-.2V7.486a.2.2 0 00-.2-.2zM16.8 7.286H8.2a.2.2 0 00-.2.2v3.028c0 .11.09.2.2.2h8.6a.2.2 0 00.2-.2V7.486a.2.2 0 00-.2-.2zM4.8 13.571H1.2a.2.2 0 00-.2.2V16.8c0 .11.09.2.2.2h3.6a.2.2 0 00.2-.2v-3.029a.2.2 0 00-.2-.2zM16.8 13.571H8.2a.2.2 0 00-.2.2V16.8c0 .11.09.2.2.2h8.6a.2.2 0 00.2-.2v-3.029a.2.2 0 00-.2-.2z"></path>
				
		</g>
	</symbol>
	<symbol id="svg-display-grid" viewBox="0 0 18 18">
		<g>
			<path stroke-linecap="round" stroke-width="1.5"
				d="M6.5 1H2a1 1 0 00-1 1v4.5a1 1 0 001 1h4.5a1 1 0 001-1V2a1 1 0 00-1-1zM16 1h-4.5a1 1 0 00-1 1v4.5a1 1 0 001 1H16a1 1 0 001-1V2a1 1 0 00-1-1zM6.5 10.5H2a1 1 0 00-1 1V16a1 1 0 001 1h4.5a1 1 0 001-1v-4.5a1 1 0 00-1-1zM16 10.5h-4.5a1 1 0 00-1 1V16a1 1 0 001 1H16a1 1 0 001-1v-4.5a1 1 0 00-1-1z"></path>
		</g>
	</symbol>
	<symbol id="svg-display-table" viewBox="0 0 18 18">
		<g>
			<path  stroke-width="1.5"
				d="M16.8 1H1.2a.2.2 0 00-.2.2v3.029c0 .11.09.2.2.2h15.6a.2.2 0 00.2-.2V1.2a.2.2 0 00-.2-.2zM16.8 7.286H1.2a.2.2 0 00-.2.2v3.028c0 .11.09.2.2.2h15.6a.2.2 0 00.2-.2V7.486a.2.2 0 00-.2-.2zM1 16.8v-3.029c0-.11.09-.2.2-.2h15.6c.11 0 .2.09.2.2V16.8a.2.2 0 01-.2.2H1.2a.2.2 0 01-.2-.2z"></path>
		</g>
	</symbol>
</svg>