<svg display="none" xmlns="http://www.w3.org/2000/svg">
	<!-- иконка меню на кнопке каталог -->
	<symbol id="svg-menu" viewBox="0 0 19 20">
		<path  fill-rule="evenodd"
			d="M8.97 3.118C8.97 1.948 8.023 1 6.854 1H2.618C1.448 1 .5 1.948.5 3.118v4.235c0 1.17.948 2.118 2.118 2.118h4.235c1.17 0 2.118-.949 2.118-2.118V3.118zm-6.352-.53h4.235l.095.009a.53.53 0 01.434.52v4.236l-.008.095a.53.53 0 01-.521.434H2.618l-.096-.008a.53.53 0 01-.434-.521V3.118l.009-.096a.53.53 0 01.52-.434zM18.5 3.118C18.5 1.948 17.552 1 16.382 1h-4.235c-1.17 0-2.118.948-2.118 2.118v4.235c0 1.17.948 2.118 2.118 2.118h4.235c1.17 0 2.118-.949 2.118-2.118V3.118zm-6.353-.53h4.235l.095.009a.53.53 0 01.435.52v4.236l-.009.095a.53.53 0 01-.52.434h-4.236l-.095-.008a.53.53 0 01-.434-.521V3.118l.008-.096a.53.53 0 01.521-.434zM18.5 12.647c0-1.17-.948-2.118-2.118-2.118h-4.235c-1.17 0-2.118.948-2.118 2.118v4.235c0 1.17.948 2.118 2.118 2.118h4.235c1.17 0 2.118-.948 2.118-2.118v-4.235zm-6.353-.53h4.235l.095.01a.53.53 0 01.435.52v4.235l-.009.095a.53.53 0 01-.52.435h-4.236l-.095-.009a.53.53 0 01-.434-.52v-4.236l.008-.095a.53.53 0 01.521-.434zM8.97 12.647c0-1.17-.948-2.118-2.117-2.118H2.618c-1.17 0-2.118.948-2.118 2.118v4.235C.5 18.052 1.448 19 2.618 19h4.235c1.17 0 2.118-.948 2.118-2.118v-4.235zm-6.352-.53h4.235l.095.01a.53.53 0 01.434.52v4.235l-.008.095a.53.53 0 01-.521.435H2.618l-.096-.009a.53.53 0 01-.434-.52v-4.236l.009-.095a.53.53 0 01.52-.434z"
			clip-rule="evenodd"></path>
	</symbol>

	<symbol id="svg-down"  viewBox="0 0 9 4">
		<path  stroke-linecap="round" d="M8 .8L5.118 2.882a1 1 0 01-1.162.006L1 .8"></path>
	</symbol>
	
	<symbol id="svg-filter" viewBox="0 0 16 16">
		<path  fill-rule="evenodd"
			d="M15.75 2a.75.75 0 01-.75.75h-3.5a.75.75 0 110-1.5H15a.75.75 0 01.75.75zm0 6a.75.75 0 01-.75.75H8.5a.75.75 0 010-1.5H15a.75.75 0 01.75.75zm0 6a.75.75 0 01-.75.75h-.5a.75.75 0 110-1.5h.5a.75.75 0 01.75.75zm-7.5 0a.75.75 0 01-.75.75H1a.75.75 0 110-1.5h6.5a.75.75 0 01.75.75zm-3-12a.75.75 0 01-.75.75H1a.75.75 0 010-1.5h3.5a.75.75 0 01.75.75zm-3 6a.75.75 0 01-.75.75H1a.75.75 0 010-1.5h.5a.75.75 0 01.75.75zm5-6a.75.75 0 101.5 0 .75.75 0 00-1.5 0zM6 2a2 2 0 104 0 2 2 0 00-4 0zM4.25 8a.75.75 0 101.5 0 .75.75 0 00-1.5 0zM3 8a2 2 0 104 0 2 2 0 00-4 0zm7.25 6a.75.75 0 101.5 0 .75.75 0 00-1.5 0zM9 14a2 2 0 104 0 2 2 0 00-4 0z"
			clip-rule="evenodd"></path>
	</symbol>

	<symbol id="svg-search" viewBox="0 0 15 16">
		<path  fill-rule="evenodd"
			d="M14.177 7.176A6.588 6.588 0 101 7.176a6.588 6.588 0 0013.177 0zm-11.942 0a5.353 5.353 0 1110.706 0 5.353 5.353 0 01-10.706 0z"
			clip-rule="evenodd"></path>
		<path 
			d="M11.156 11.517a.618.618 0 01.805-.053l.069.06 2.587 2.631a.618.618 0 01-.812.927l-.07-.06-2.586-2.632a.618.618 0 01.007-.873z"></path>
	</symbol>

	<symbol id="svg-compare" viewBox="0 0 18 18">
		<path 
			d="M2.864 13.425c-.414 0-.75-.289-.75-.703 0-.38.282-.74.648-.79l.102-.007h13a.75.75 0 01.102 1.493l-.102.007h-13z"></path>
		<path 
			d="M3.857 15.525a.75.75 0 01-.975.083l-.085-.072-1.561-1.528a1.75 1.75 0 01-.23-2.224l.093-.127 1.363-1.685a.75.75 0 011.23.852l-.064.091L2.266 12.6a.25.25 0 00-.02.287l.04.05 1.56 1.527a.75.75 0 01.011 1.06zM15.055 3.44a.75.75 0 01.101 1.493l-.101.007h-13a.75.75 0 01-.102-1.493l.102-.007h13z"></path>
		<path 
			d="M14.062 1.363a.75.75 0 01.975-.083l.085.072 1.561 1.528a1.75 1.75 0 01.23 2.224l-.093.127-1.363 1.684a.75.75 0 01-1.23-.851l.064-.092 1.362-1.685a.25.25 0 00.02-.286l-.039-.05-1.561-1.527a.75.75 0 01-.011-1.06z"></path>
	</symbol>
	
	<symbol id="svg-cart" viewBox="0 0 21 19" >
		<path fill-rule="evenodd" clip-rule="evenodd"
			d="M0.0996094 1.0001C0.0996094 0.503041 0.502553 0.100098 0.999609 0.100098H2.3909C3.19834 0.100098 3.91761 0.610433 4.18428 1.3726M4.18428 1.3726L7.21456 10.0331C7.21456 10.0331 7.21455 10.0331 7.21456 10.0331C7.2286 10.0732 7.26646 10.1001 7.30896 10.1001H17.5827C17.6303 10.1001 17.6712 10.0667 17.6807 10.0201L18.8727 4.18431C18.8727 4.1843 18.8727 4.18432 18.8727 4.18431C18.8853 4.12232 18.838 4.06427 18.7747 4.06427H8.17454C7.67748 4.06427 7.27454 3.66132 7.27454 3.16427C7.27454 2.66721 7.67748 2.26427 8.17454 2.26427H18.7747C19.9768 2.26427 20.8768 3.36663 20.6363 4.54447L19.4443 10.3803C19.2636 11.2649 18.4855 11.9001 17.5827 11.9001H7.30896C6.50153 11.9001 5.78227 11.3898 5.51558 10.6277L2.48528 1.96707C2.47125 1.92697 2.43339 1.9001 2.3909 1.9001H0.999609C0.502553 1.9001 0.0996094 1.49715 0.0996094 1.0001"
			></path>
		<path
			d="M7 19C8.10457 19 9 18.1046 9 17C9 15.8954 8.10457 15 7 15C5.89543 15 5 15.8954 5 17C5 18.1046 5.89543 19 7 19Z"
			></path>
		<path
			d="M17 19C18.1046 19 19 18.1046 19 17C19 15.8954 18.1046 15 17 15C15.8954 15 15 15.8954 15 17C15 18.1046 15.8954 19 17 19Z"
			></path>
	</symbol>

	<symbol  id="svg-user" viewBox="0 0 16 18">
		<path  fill-rule="evenodd"
			d="M12 4.5a4 4 0 10-8 0 4 4 0 008 0zm-6.5 0a2.5 2.5 0 115 0 2.5 2.5 0 01-5 0zM15.5 13.498a3.218 3.218 0 00-3.87-3.15l-.312.064-.86.17-.51.096-.663.115-.377.06-.325.043-.273.03-.22.014h-.18l-.22-.014a7.43 7.43 0 01-.13-.013l-.299-.037-.35-.051-.404-.066-.964-.177-1.173-.235a3.218 3.218 0 00-3.87 3.15 4 4 0 004 4.001h7a4 4 0 004-4zm-3.566-1.682a1.718 1.718 0 012.03 1.334l.02.115c.01.077.016.155.016.233a2.5 2.5 0 01-2.5 2.5h-7l-.164-.005A2.5 2.5 0 012 13.498a1.718 1.718 0 012.066-1.682l.33.068.91.18.787.145.669.11.554.075.16.017.286.023.238.008.239-.008a6.09 6.09 0 00.136-.01l.309-.03.554-.075.433-.07.485-.084.827-.157.951-.192z"
			clip-rule="evenodd"></path>
	</symbol>

	<symbol id="svg-tg" viewBox="0 0 78 79">
		<g>
			<path
				d="M20.6718 16.8431L54.7147 5.49551C69.9919 0.403109 78.2921 8.74342 73.2398 24.0206L61.8922 58.0634C54.2737 80.9591 41.7632 80.9591 34.1447 58.0634L30.7764 47.9588L20.6718 44.5906C-2.22394 36.972 -2.22394 24.5018 20.6718 16.8431Z"
				 stroke-width="6.01464" stroke-linecap="round"
				stroke-linejoin="round" />
			<path d="M31.5383 46.235L45.8933 31.8399" stroke-width="6.01464"
				stroke-linecap="round" stroke-linejoin="round" /></g>
	</symbol>

	<symbol id="svg-fb" viewBox="0 0 78 77">
		<g>
			<path
				d="M46.232 28.9953V39.3222H55.4906C56.2028 39.3222 56.5589 40.0344 56.5589 40.7466L55.1345 47.5125C55.1345 47.8686 54.4223 48.2247 54.0662 48.2247H46.232V74.22H35.549V48.5808H29.4953C28.7831 48.5808 28.427 48.2247 28.427 47.5125V40.7466C28.427 40.0344 28.7831 39.6783 29.4953 39.6783H35.549V27.927C35.549 21.8733 40.1783 17.244 46.232 17.244H55.8467C56.5589 17.244 56.915 17.6001 56.915 18.3123V26.8587C56.915 27.5709 56.5589 27.927 55.8467 27.927H47.3003C46.5881 27.927 46.232 28.2831 46.232 28.9953Z"
				 stroke-width="5.3415" stroke-miterlimit="10" stroke-linecap="round" />
			<path
				d="M49.793 74.22H28.427C10.622 74.22 3.5 67.098 3.5 49.293V27.927C3.5 10.122 10.622 3 28.427 3H49.793C67.598 3 74.72 10.122 74.72 27.927V49.293C74.72 67.098 67.598 74.22 49.793 74.22Z"
				 stroke-width="5.3415" stroke-linecap="round"
				stroke-linejoin="round" /></g>
	</symbol>

	<symbol id="svg-wa" viewBox="0 0 72 72">
		<g>
			<path
				d="M2.99625 71.2365C2.33389 71.2365 1.70455 70.9716 1.2409 70.5079C0.611663 69.8787 0.346885 68.9514 0.578711 68.0903L4.7516 52.4918C1.9697 47.3254 0.512409 41.4966 0.512409 35.6017C0.512409 15.9628 16.4752 0 36.114 0C55.753 0 71.7158 15.9628 71.7158 35.6017C71.7158 55.2406 55.753 71.2034 36.114 71.2034C30.1197 71.2034 24.2581 69.7131 19.0254 66.865L3.65864 71.1372C3.42682 71.2034 3.22808 71.2365 2.99625 71.2365ZM19.3565 61.7317C19.787 61.7317 20.2176 61.8645 20.615 62.0632C25.2846 64.812 30.6496 66.2688 36.114 66.2688C53.0042 66.2688 66.7481 52.5249 66.7481 35.6348C66.7481 18.7448 53.0042 5.00084 36.114 5.00084C19.224 5.00084 5.4801 18.7448 5.4801 35.6348C5.4801 41.033 6.90413 46.2987 9.58668 50.9352C9.91786 51.4983 10.0173 52.1937 9.85169 52.823L6.5399 65.2091L18.7273 61.831C18.926 61.7648 19.1578 61.7317 19.3565 61.7317Z"
				 />
			<path
				d="M45.1887 54.7094C43.1354 54.7094 41.0158 54.2457 38.7969 53.2853C36.7105 52.3911 34.6241 51.1989 32.6039 49.7086C30.6168 48.2514 28.6631 46.5955 26.8747 44.8071C25.0863 42.9856 23.4303 41.0648 21.9731 39.0777C20.4828 36.9913 19.2905 34.938 18.4295 32.9178C17.5022 30.732 17.0385 28.5793 17.0385 26.526C17.0385 25.0688 17.3034 23.6779 17.8002 22.3863C18.3301 21.0285 19.1912 19.8031 20.3172 18.7433C22.4367 16.6569 25.4837 15.8952 27.9013 17.0543C28.7293 17.4186 29.4247 18.0148 29.9548 18.8096L33.7961 24.2077C34.1935 24.7376 34.4919 25.3006 34.7237 25.8636C34.9887 26.526 35.1543 27.1884 35.1543 27.8177C35.1543 28.6787 34.9221 29.5398 34.4585 30.3015C34.1604 30.7982 33.7299 31.3944 33.1669 31.9574L32.7363 32.421C32.935 32.686 33.1669 33.0171 33.5312 33.4146C34.2266 34.2094 34.9884 35.0704 35.8163 35.8984C36.6442 36.6932 37.4722 37.4881 38.3001 38.1835C38.6976 38.5147 39.0291 38.7797 39.294 38.9452L39.7573 38.4816C40.3535 37.8855 40.9499 37.4218 41.546 37.1238C42.6389 36.4283 44.3276 36.2627 45.8179 36.8919C46.3478 37.0906 46.8777 37.3887 47.4407 37.7861L52.9717 41.694C53.7334 42.2239 54.3292 42.9525 54.7266 43.7805C55.0578 44.6084 55.1906 45.337 55.1906 46.0987C55.1906 47.0922 54.9584 48.0527 54.5279 48.98C54.0974 49.841 53.6006 50.6027 53.0045 51.2982C51.9447 52.4573 50.7197 53.3184 49.395 53.8814C48.0703 54.4444 46.6459 54.7094 45.1887 54.7094ZM25.4836 21.5252C25.2849 21.5252 24.6227 21.5252 23.7947 22.3531C23.1655 22.9493 22.7349 23.5786 22.4368 24.274C22.1387 24.9695 22.0062 25.7643 22.0062 26.5592C22.0062 27.9501 22.3374 29.4404 22.9997 31.0301C23.6952 32.686 24.722 34.4412 25.9804 36.1965C27.272 37.9517 28.7292 39.707 30.3522 41.3297C31.975 42.9194 33.6968 44.4097 35.4851 45.7344C37.2073 46.9929 38.9628 47.9864 40.7181 48.7481C43.235 49.841 45.553 50.106 47.4407 49.3112C48.103 49.0462 48.6992 48.5826 49.2953 47.9864C49.5933 47.6553 49.8255 47.3241 50.0242 46.8935C50.1236 46.6617 50.1895 46.3968 50.1895 46.1649C50.1895 46.0987 50.1895 45.9994 50.0901 45.8007L44.5594 41.959C44.3276 41.7934 44.0958 41.6609 43.8971 41.5947C43.7646 41.6609 43.5662 41.7603 43.2019 42.1246L41.9434 43.383C40.983 44.3435 39.4596 44.6084 38.2342 44.1779L37.6381 43.9129C36.8764 43.5155 36.015 42.9194 35.0546 42.0914C34.1273 41.2966 33.2334 40.4687 32.273 39.5414C31.3457 38.5809 30.5178 37.6868 29.7229 36.7595C28.8617 35.7328 28.2656 34.9049 27.8682 34.2094L27.5039 33.3483C27.4046 33.0171 27.3713 32.6528 27.3713 32.3217C27.3713 31.3944 27.7026 30.5664 28.3319 29.9041L29.5905 28.6125C29.9548 28.2482 30.0872 28.0495 30.1535 27.917C30.0541 27.6852 29.9216 27.4864 29.7561 27.2546L25.881 21.7902L25.4836 21.5252Z"
				 /></g>
	</symbol>

	<symbol id="svg-location" viewBox="0 0 72 82">
		<g>
			<path
				d="M36.1028 49.0502C28.0162 49.0502 21.4103 42.4823 21.4103 34.3578C21.4103 26.2335 28.0162 19.7035 36.1028 19.7035C44.1894 19.7035 50.7952 26.2714 50.7952 34.3958C50.7952 42.5202 44.1894 49.0502 36.1028 49.0502ZM36.1028 25.3982C31.1674 25.3982 27.105 29.4225 27.105 34.3958C27.105 39.3691 31.1295 43.3934 36.1028 43.3934C41.0762 43.3934 45.1005 39.3691 45.1005 34.3958C45.1005 29.4225 41.0383 25.3982 36.1028 25.3982Z"
				/>
			<path
				d="M36.0983 81.6623C30.4795 81.6623 24.8227 79.5363 20.4188 75.3222C9.21916 64.5402 -3.15738 47.3421 1.5123 26.8791C5.72639 8.3143 21.9374 0 36.0983 0H36.1363C50.2971 0 66.5081 8.3143 70.7222 26.9171C75.3539 47.3801 62.9774 64.5402 51.7778 75.3222C47.3738 79.5363 41.7171 81.6623 36.0983 81.6623ZM36.0983 5.69472C25.0505 5.69472 10.8516 11.5793 7.09313 28.1319C2.99293 46.0134 14.2305 61.4271 24.4051 71.184C30.973 77.5242 41.2615 77.5242 47.8294 71.184C57.966 61.4271 69.2036 46.0134 65.1794 28.1319C61.3829 11.5793 47.1461 5.69472 36.0983 5.69472Z"
				 /></g>
	</symbol>


	<symbol id="svg-favor" viewBox="0 0 77 70">
		<g>
		<path
				d="M40.7328 66.0671C39.5221 66.4944 37.5279 66.4944 36.3172 66.0671C25.9903 62.5417 2.91501 47.8348 2.91501 22.9077C2.91501 11.9042 11.7819 3.00171 22.7142 3.00171C29.1952 3.00171 34.9284 6.13539 38.525 10.9783C42.1216 6.13539 47.8904 3.00171 54.3359 3.00171C65.2681 3.00171 74.135 11.9042 74.135 22.9077C74.135 47.8348 51.0597 62.5417 40.7328 66.0671Z"
				 stroke-width="5.3415" stroke-linecap="round"
				stroke-linejoin="round" />
		</g>
	</symbol>

	<symbol id="svg-mail" viewBox="0 0 78 67">
		<g>
			<path
				d="M56.915 63.537H21.305C10.622 63.537 3.5 58.1955 3.5 45.732V20.805C3.5 8.3415 10.622 3 21.305 3H56.915C67.598 3 74.72 8.3415 74.72 20.805V45.732C74.72 58.1955 67.598 63.537 56.915 63.537Z"
				 stroke-width="5.3415" stroke-miterlimit="10" stroke-linecap="round"
				stroke-linejoin="round" />
			<path
				d="M56.915 22.5855L45.7691 31.488C42.1012 34.408 36.0832 34.408 32.4153 31.488L21.305 22.5855"
				 stroke-width="5.3415" stroke-miterlimit="10" stroke-linecap="round"
				stroke-linejoin="round" /></g>
	</symbol>

	<symbol id="svg-call" viewBox="0 0 72 72">
		<g><path
				d="M54.2635 71.8648C50.5133 71.8648 46.564 70.9688 42.482 69.243C38.4995 67.5505 34.4838 65.2274 30.5677 62.4064C26.6848 59.5523 22.9346 56.3663 19.3836 52.8817C15.8657 49.3306 12.6797 45.5805 9.85883 41.7307C7.00472 37.7483 4.71479 33.7658 3.08861 29.916C1.36287 25.8008 0.5 21.8183 0.5 18.0682C0.5 15.4796 0.964622 13.0237 1.86068 10.7338C2.78993 8.37747 4.28336 6.1871 6.30778 4.29543C8.86321 1.77319 11.7837 0.51207 14.9033 0.51207C16.1976 0.51207 17.5251 0.810756 18.6535 1.34175C19.9478 1.93912 21.043 2.83518 21.8395 4.02993L29.5389 14.8822C30.2358 15.8446 30.7668 16.7739 31.1319 17.7031C31.5633 18.6987 31.7957 19.6943 31.7957 20.6568C31.7957 21.9179 31.4306 23.1458 30.7337 24.3074C30.2358 25.2034 29.4725 26.1659 28.5101 27.1283L26.2534 29.4846C26.2866 29.5842 26.3197 29.6505 26.3529 29.7169C26.7512 30.4139 27.5477 31.6086 29.0743 33.4007C30.7005 35.2592 32.2271 36.9518 33.7537 38.5116C35.7118 40.4364 37.3379 41.963 38.8646 43.2242C40.7562 44.8172 41.9842 45.6136 42.7143 45.9787L42.6479 46.1446L45.0706 43.7552C46.0994 42.7263 47.095 41.963 48.0574 41.4652C49.8827 40.3369 52.2059 40.1377 54.529 41.1002C55.3918 41.4652 56.3211 41.963 57.3167 42.66L68.3349 50.4922C69.5628 51.3219 70.4589 52.3839 70.9899 53.645C71.4877 54.9061 71.72 56.0677 71.72 57.2292C71.72 58.8222 71.3549 60.4152 70.658 61.9086C69.9611 63.4021 69.0982 64.6964 68.003 65.8911C66.1113 67.9819 64.0537 69.4753 61.6642 70.4378C59.3743 71.367 56.8853 71.8648 54.2635 71.8648ZM14.9033 5.49017C13.078 5.49017 11.3854 6.28666 9.75926 7.87966C8.23265 9.30671 7.17065 10.8665 6.50691 12.5591C5.80997 14.2848 5.4781 16.1101 5.4781 18.0682C5.4781 21.1546 6.20822 24.5065 7.66846 27.958C9.16189 31.4758 11.2527 35.1265 13.9077 38.7771C16.5627 42.4277 19.5827 45.9787 22.9014 49.3306C26.2202 52.6162 29.8044 55.6694 33.4882 58.3576C37.0724 60.9794 40.7562 63.1034 44.4068 64.63C50.0819 67.0527 55.3918 67.6168 59.7726 65.7915C61.4651 65.0946 62.9585 64.0326 64.3192 62.506C65.0825 61.6763 65.6799 60.7803 66.1777 59.7183C66.576 58.8886 66.7751 58.0257 66.7751 57.1628C66.7751 56.6318 66.6755 56.1008 66.41 55.5035C66.3105 55.3043 66.1113 54.9393 65.4808 54.5079L54.4626 46.6756C53.7988 46.211 53.2015 45.8791 52.6373 45.6468C51.9072 45.3482 51.6085 45.0495 50.4801 45.7464C49.8164 46.0783 49.219 46.5761 48.5552 47.2398L46.033 49.7289C44.7387 50.99 42.7475 51.2887 41.2209 50.7245L40.3248 50.3262C38.9641 49.5961 37.3711 48.4678 35.6122 46.9743C34.0192 45.6136 32.2935 44.0207 30.2027 41.963C28.5765 40.3037 26.9503 38.5447 25.2577 36.5867C23.6979 34.7614 22.5696 33.2016 21.8726 31.9073L21.4744 30.9117C21.2753 30.1484 21.2089 29.7169 21.2089 29.2523C21.2089 28.0576 21.6403 26.9956 22.47 26.1659L24.9591 23.5773C25.6228 22.9135 26.1206 22.283 26.4525 21.7188C26.718 21.2873 26.8176 20.9223 26.8176 20.5904C26.8176 20.3249 26.718 19.9267 26.5521 19.5284C26.3197 18.9974 25.9547 18.4 25.4901 17.7695L17.7906 6.88404C17.4587 6.41941 17.0605 6.08754 16.5627 5.85523C16.0317 5.62292 15.4675 5.49017 14.9033 5.49017ZM42.6479 46.1778L42.1169 48.4346L43.013 46.1115C42.847 46.0783 42.7143 46.1115 42.6479 46.1778Z"
				 /></g>
	</symbol>



</svg>